<svg version="1.0" xmlns="http://www.w3.org/2000/svg" width="666.667" height="666.667" viewBox="0 0 500 500"><path d="M.1 117.2c.1 67.5.5 113.7 1 108.8 3.5-36.4 16.2-74.6 35.3-106 19.9-32.6 50.3-63.1 83.2-83.2 20.7-12.8 45.7-23.3 69.2-29.3 8.9-2.3 31-6 40.7-6.8C231.7.5 181 .3 116.8.2L0 0l.1 117.2zM270 .7c34.4 3.3 64 11.7 93.3 26.5 38.5 19.3 74.7 52.5 99.1 90.8 6.9 10.8 18.9 35.7 23.1 48 7.1 20.6 11.6 40.6 13.4 60 .5 4.9.9-41.3 1-108.8L500 0 383.3.2C319 .2 268.1.5 270 .7z"/><path d="M227.5 7.1c-58.3 5.6-111.6 31.3-152.7 73.7-59.3 61.1-82.1 147.6-60.7 230.9 4.1 16 8.8 28.5 17.9 46.8 12.2 24.8 23.6 40.9 43 60.9 20.4 21 41.6 36.5 67.5 49.1 23.9 11.7 45.3 18.5 72 22.7 19.7 3.1 50.9 3.1 71 0 44-6.9 83.9-24.4 118-51.9 11.1-9 29.1-27 37.7-37.9 14.3-18 30-46.2 38.2-68.4 14.5-39.6 18.1-85.2 10.2-128-12-64.7-50.5-122.3-106.2-159C338.3 16.2 281.1 2 227.5 7.1zM264 88.5c21.1 4.1 36 12.3 52.2 28.6 10.8 10.9 10.8 11 9.2 23l-.6 4.4-8.8-.3c-10.2-.4-15.7.8-20 4.4-4.7 4-5.4 6-6 17.9-.5 10.1-.8 11.3-3.4 15-1.6 2.2-5 5.7-7.4 7.9-3.8 3.1-5.1 3.7-7.7 3.3-1.8-.3-3.8-.1-4.5.3-1 .6-3.3-.9-7.6-5-8.4-7.8-14.9-10.3-25.9-9.8-6.6.2-9.2.9-14.5 3.5-15.2 7.5-27.3 25.7-30.1 45.4-1.1 7.8-1.1 9 .9 15.6 1.8 5.7 3.2 8.1 7.1 12.2 2.7 2.8 4.4 5.1 3.7 5.1-1.7 0-12.2-6.5-17.4-10.7-10.8-8.8-21-25.1-27.8-44-4.1-11.3-9.5-31.4-8.8-32.5.3-.4 2.5-1.7 5-2.8 19.6-8.6 33.7-33.5 31.7-55.6-.5-5.4-.3-6.2 1.3-6.7 1.1-.3 6.1-3 11.1-6 20.7-12.1 47.4-17.3 68.3-13.2zm-98.2 7.1c6.6 3.3 10.5 9.4 12.1 19.1 1.1 6.2 1 7.9-.9 15.4-2.5 10.2-5 15.1-11.5 22.8-4.7 5.5-12 10.5-20.3 14-3.7 1.5-3.6.7-1.3 11.1 1.5 6.9 2.8 12 4.4 17.5 1.3 4.4 2.3 7.4 7 20 1.7 4.6 7.5 15.3 11.7 21.5 9.2 13.6 23.9 24.8 40.5 31 5.5 2 9.8 3 18.8 4.1 18.2 2.3 31.5-2.4 40.2-14.2 2.5-3.3 5.5-11 6.1-15.8.3-2.8 1-4.8 1.4-4.6.4.3 1-.2 1.4-1 .3-.8.1-1.5-.4-1.5-.6 0-1-.5-1-1 0-.6 1-1 2.3-1 2.7 0 5.9 4.7 5.1 7.6-.4 1.6.4 2.4 3.8 4.1 9.2 4.6 9.4 4.6 16.8 1.2 5.2-2.4 6.7-3.5 6.3-4.8-.4-1.3-.3-1.3.5-.2.8 1.2 2 .8 6.7-2l5.7-3.4.3-11.5c.3-13.6 2-21.5 7.1-31.7 2-4.2 3.7-8.9 3.6-10.6 0-1.9.2-2.6.7-1.8.6.9 1.3.2 2.5-2.2.9-1.9 1.6-4.1 1.6-4.9.1-1.6 8 7.2 8 8.9 0 .7-1.5 4.4-3.4 8.2-1.8 3.7-3.6 7.9-3.9 9.2-2.9 12-3.6 16.7-3.7 24.7 0 10.8 1.9 17.5 8.3 29.2 8.2 15.1 9.1 17.3 9.5 23.8.5 7.8-1.2 12.8-8.4 23.9-7.1 11-9.4 10.9-9.4 0 0-2.9.7-9 1.6-13.7 2.2-12.3 2.8-20.8 1.6-23.3-.6-1.2-1.3-3.4-1.6-4.9-.9-3.9-4.8-8.1-10.1-10.8-4.4-2.3-4.6-2.6-4-5.6l.6-3.3-4.2 1.7c-2.2.9-4.8 2.6-5.6 3.8-.8 1.2-2.6 2.5-4 2.9-4.3 1-11.1 6.3-14.4 11.2-2.9 4.1-3.2 5.4-3.3 11.7 0 9.6 2.5 13.4 13.1 20 9.1 5.7 12.4 9.8 14.3 17.8 1.3 5.6 1.2 7.5-1.1 21.8-.7 4.1-1.3 10.3-1.3 13.7-.2 7.2-1.6 9.5-4.3 7.1-5-4.3-6.3-2.3-5.4 8.4.4 4.4.3 7.8-.2 7.8s-.7.7-.3 1.5c.3.8.1 1.5-.4 1.5-.6 0-1 .7-1 1.5s-.5 1.5-1.1 1.5c-.5 0-.7.5-.4 1.1.4.5.4 2.2.1 3.6-.6 2-1.1 2.4-2.9 1.9-1.9-.4-3 .5-6.6 5.8-5.1 7.6-7 12.6-7.1 18.8 0 4.9-1.1 6.6-2.8 4.5-1.6-2-2.6-6.1-1.3-5.3.6.4 1.1.2 1.1-.4 0-.6 2.2-5.7 5-11.3 2.7-5.6 5-9.8 5-9.3s.8-.2 1.9-1.5c1.5-1.8 1.6-2.7.7-4.1-1.3-2.2.5-3.8 3.4-3.1 1.3.4 2.3-.4 3.5-2.7l1.6-3.2-3.1 2.3c-2.9 2.2-3.2 2.2-5.7.7-1.5-.9-3-2.5-3.4-3.6-1.1-2.9 2-8.5 5.5-9.7 2.5-.8 3.1-.6 5.2 1.8l2.4 2.8v-3.7c0-3.1-.2-3.5-1.5-2.4-1.2 1-1.8 1-2.9.1-2.1-1.7-4.4-.3-9.9 6.2l-4.7 5.5 2.2 4.8c1.5 3.3 2.3 4.3 2.6 3.2.6-2.9 2.4-2 2 .9-.2 1.9-.8 2.7-1.9 2.5-1.2-.2-1.9.8-2.3 3.2-.8 4.4-6.1 9.1-11.8 10.7-8.8 2.3-21.6-1.5-26.3-7.9-1.3-1.8-2-4.3-2-7.5v-4.9l-3.8.5c-3 .4-3.9.1-4.8-1.5-1.4-2.6-3-1.1-3.4 3.2-.1 1.8-.7 3.5-1.2 3.9-.6.3-2.3 3.2-3.9 6.5-3.6 7.4-5.5 8.3-13.8 6.8-9.7-1.8-12.5-1.6-13.6 1.1-.5 1.2-.9 1.5-.9.7-.1-2.4 2.9-6.3 8.9-11.4 3-2.7 8.8-8 12.8-11.9 6-5.9 7-7.3 5.6-8-1-.6-2.5-.5-4 .4-2 1-2.9 1-5.1-.2-2-1.1-2.2-1.5-1-1.7 1-.2 1.7-.7 1.7-1.2s.9-1.2 2-1.5c1.2-.4 2-1.5 2-2.7 0-1.2.7-3 1.7-4 1.5-1.7 1.5-1.8-.8-1.8-1.4 0-3 .5-3.7 1.2-.9.9-1.2.9-1.2-.2 0-1-.5-.9-1.9.4-1.1 1-3 1.6-4.3 1.4-2.9-.4-3.5-4.2-1.4-8.3 1.4-2.7 1.4-3.1-.4-5-1.1-1.2-2-3.2-2-4.5 0-2.1-.1-2.2-1.8-.7-.9.8-3.1 2.3-4.7 3.1-1.7.9-2.5 1.6-1.8 1.6 1.7 0 .4 3.9-1.8 5-2.6 1.4-5.3-1.4-3.9-4.1.6-1 .9-1.9.6-1.9-.2 0-1.2-.3-2.2-.7-1.5-.5-1.6-.2-1 3.1.5 2.7.3 3.8-.7 4.2-.9.3-1.2 1.4-.9 2.9.2 1.5.9 2.2 1.8 1.8.8-.3 1.4-.1 1.4.5s.3 1.7.6 2.6c.4 1.1.1 1.6-1 1.6-.9 0-1.6-.6-1.6-1.3 0-.7-.7-.4-1.5.7-1.2 1.6-1.2 2.2-.3 2.7.9.6.6.8-.7.8-1.1.1-3.6.3-5.6.7-3.1.5-3.9.2-5.8-2.1-2.8-3.7-2.7-6.7.6-10.5 2.3-2.8 3.1-3.2 6.5-2.7 3.8.5 3.8.5 3.8-2.9 0-3 .5-3.7 3.5-5 1.9-.7 4.2-1.4 5.1-1.4.9 0 2.2-.8 2.9-1.7.9-1.3 1.7-1.4 2.6-.7 1 .7 2.5.7 4.8-.1l3.4-1.2-3.2-1.1c-2.9-1-3.1-1.4-2.1-3.3.7-1.1 1-2.3.7-2.5-.7-.7-13.4 8.4-14.1 10.1-.3.8-1.7 1.5-3.1 1.5-1.7 0-2.5.5-2.5 1.7 0 1.4-.2 1.5-.9.4s-1.3-.9-3 .8c-1.1 1.1-2.8 2.1-3.7 2.1-.8 0-1.3.4-1 .9.4.5-.3.7-1.4.4-1.4-.4-2.2.2-3 2.1-1 2.6-2.4 3.3-3.4 1.7-.4-.5-5 .6-10.4 2.4-22.2 7.7-47.6 8.6-59 1.9-1.5-.8-1.8-1.2-.7-.8 14.2 4.8 23.9 5.4 39.2 2.5 6.1-1.2 14.7-3.3 19-4.7 10.5-3.4 23.8-9.8 24.6-11.7.4-1 1.3-1.4 2.6-1 1.2.3 2.1.1 2.1-.6 0-.5-.7-.8-1.6-.4-1.2.4-1.5.2-1.2-.8.3-.8 1.3-1.3 2.3-1.1 1 .2 1.4-.1 1-.7-.4-.8.2-.8 1.9-.1 1.7.6 2.6.6 2.6 0s.6-1 1.3-1c.6 0 3.4-1.6 6-3.6 3.8-2.7 4.6-3.8 3.7-4.9-1.5-1.8-4.7-.8-5.4 1.8-.6 2.1-.7 2.1-2 .4-1.1-1.4-2.9-1.7-10.5-1.7-9.1 0-12.8-1-14.4-3.6-.4-.8-1.7-1.4-2.8-1.4-1.2 0-2.3-.8-2.6-2-.3-1.1-1.6-2.2-2.9-2.5-1.3-.3-3.4-.7-4.6-1-2.6-.6-6.2-5-5.3-6.5 1.1-1.8 3.5-1 4.5 1.5 1.8 4.7 5.1 5.2 14.3 2.2 4.5-1.5 8.9-2.7 9.8-2.7 2.3 0 3 1.1 1.7 2.7-2 2.4.7 3.6 7.8 3.5 3.7-.1 9.2-.6 12.2-1.3l5.5-1.1-2.5-2.4c-1.8-1.8-3.7-2.5-7.6-2.8-5.5-.4-7.7-1.6-8.7-4.6-.3-1-1.8-2-3.3-2.3-2.1-.4-3.5.2-6.3 3l-3.7 3.5-2.8-1.8c-3.6-2.3-4.4-3.3-4.4-6.2 0-2.7-1.1-2.8-3.5-.2-4.1 4.5-10.3 1.2-9.2-4.9.4-2.2-.2-3.1-4.4-5.8L151 280l-1.5 3c-2.2 4.3-2 12.5.5 15 1.1 1.1 2 2.4 2 3 0 .5.5 1 1 1 1.5 0 1.2 4.6-.5 6-2.5 2-5 .8-5-2.5 0-1.7-.6-3.6-1.4-4.4-1.9-2.1-1-11.5 1.8-17.2l2.1-4.5-5.1-7.8c-3.7-5.5-5.4-7.4-6-6.4-.7 1-.9 1-.9-.2 0-.9-.9-2.3-2-3.3-1.1-.9-2-2.9-2-4.6 0-3.4-2.2-4.3-7.7-3.1-2 .5-4.1.7-4.5.4-1.9-1.2-.7-5.1 2.2-7.2 2.5-1.9 3-3 3-6.4 0-2.4-.9-5.5-2.2-7.6-2.1-3.4-2.1-3.5-.3-10.9 1.4-6.3 5.2-19.2 7-24.1.4-1 1-.9 2.8.3 3.9 2.5 4.8-.5 2.5-8.9-1.1-4-.9-4.8 1.5-9.5 1.5-2.8 2.7-6.4 2.7-8.1 0-2.5-.4-3-2.5-3-6.8 0-16.9-7.1-19.2-13.7-3.7-10.2-4.3-15.7-2.1-19.6.7-1.2 1.1-3.1 1-4.2-.2-1.2.4-3.4 1.3-5l1.6-3-.6 3.2c-.6 2.8-.4 3.3 1.2 3.3 2.6.1 5.8 3.1 6.1 5.7.1 1.3.2 2.9.3 3.5.1.7-.1 2.4-.6 3.7-.6 2.1-.5 2.3 1.4 1.8 1.5-.3 2.6.2 3.9 2 2.1 2.9 4.2 2.4 4.3-1 0-2.1.1-2.1.9-.2.5 1.1.9 3.5.9 5.2.1 2.5-.3 3.3-1.6 3.3-1.4 0-1.3.3.5 1.6 1.2.8 2.6 1.3 3.1 1 .5-.3 1.1.1 1.5.9.8 2.1 3.6 1.9 3.6-.3 0-1-1-2.6-2.2-3.7l-2.3-2 2.8-.3c2.2-.3 3.1-1.2 4.3-4.3.9-2.1 1.9-3.9 2.3-3.9 1 0 .1-6.2-1-7.6-.5-.6-.7-1.9-.3-2.8.4-1.2 0-1.6-1.5-1.6-1.2 0-2.1-.5-2.1-1 0-.6-.9-1-2-1s-2-.4-2-1c0-.5.8-.9 1.8-.8 4.3.3 6.1-.2 5.6-1.7-.4-.9-1.6-1.5-2.8-1.4-3.7.3-5.6-.1-5.6-1.2 0-.5.5-.7 1-.4.6.4 2.4.4 4 0 2.7-.6 2.8-.8 1.5-2.1-.8-.9-1.5-2.2-1.5-2.9 0-4.1-7.5-3.4-11.6 1-1.7 1.8-3 2.4-4.4 2-1.3-.4-3.1.2-5 1.5-2.9 2.1-3 2.1-3 .2 0-4.2 5.2-13.2 10.3-17.8 6.8-6.1 8.9-7.4 15.1-9.6 7.2-2.5 12.3-2.3 18.4.8zM351.5 106c-.3.5-1 1-1.6 1-.5 0-.9-.5-.9-1 0-.6.7-1 1.6-1 .8 0 1.2.4.9 1zm14.7 3.6c4.2 2.7 11.8 13.5 11.8 16.7 0 1.6-4.1-2.5-5.1-5.1-.5-1.2-2.1-2.7-3.5-3.2-1.5-.6-4-2-5.6-3.1-2.2-1.6-3.2-1.9-4.1-1-1.7 1.7-3.7 1.3-3.7-.9 0-1.1.4-2 .9-2 .4 0 .6-1.2.3-2.6-.5-2.5-.3-2.6 2.4-2 1.6.4 4.6 1.8 6.6 3.2zm-15.5 5.8c-.4 1.3-5.7 2.1-5.7.9 0-.5.5-1.4 1.1-2 1.3-1.3 5.1-.5 4.6 1.1zm-2.5 33.1c4.5 5.5 8.8 10.4 9.5 10.8 2.5 1.5 9.1 18.4 11.1 28.2 2.8 13.7 3.8 19.6 7.7 45.5 2.3 15.2 2.1 35.9-.6 49.5-3.7 18.9-6.6 23.3-27.3 43.8-16.6 16.2-24.9 23.1-27 22.4-2.4-.8-3-5.7-1.6-13 .7-3.9 1.5-12.1 1.8-18 .6-16.5-1.8-21.1-15.5-30.3-4.7-3.2-9.4-7.2-10.4-8.9-5.1-8.3.6-21.5 11.3-25.9 7.1-3 17.8-1.4 22 3.2l2.3 2.5-3-.7c-6.1-1.4-19.2-1.9-19.9-.7-.4.6-1.6 1.1-2.6 1.1-2.4 0-7 5.5-7 8.5 0 2.9 4.8 7.1 9.8 8.5 5.9 1.6 14.2 1.2 19.1-1.1 2.5-1.1 4.8-1.6 5.1-1.2.4.4.1 3.7-.7 7.3-.8 3.6-1.5 11.5-1.6 17.5-.2 9.1.1 11.6 1.6 13.8 3.5 5.4 7.9 2.5 16.4-11 5.5-8.9 7.3-14.6 7.3-23.5 0-5.4.3-6.8 1.5-6.8 2.1 0 8-8.4 11.2-16 2.5-6 2.7-7.5 2.7-20 0-15-1.6-22.3-7.5-32.9-1.7-3.1-3.7-6.7-4.5-8.1-.7-1.4-3.8-5.7-6.8-9.5-15-19-19.5-26.7-22.1-37.8-1.6-6.5-2-14.9-.8-16.1 1-1 9.2 7.4 18.5 18.9zm32.8-15.6c0 1.1.5 2.3 1 2.6.6.3 1 3.6 1 7.3 0 9.3-2.9 15.2-8.5 17.1-5.6 1.9-10.1-.1-15.5-7.1-2.3-2.9-4.7-6-5.3-6.8-7.7-9.7-5-11.6 3.5-2.4 4 4.4 4.2 4.5 8.7 3.8 2.5-.3 5.5-1.5 6.7-2.5 1.1-1.1 2.4-1.6 2.8-1.2.4.4.9-.2 1.2-1.4.4-1.2 1.2-1.9 1.9-1.7 1.6.7 1.8-6.4.3-8.4-.8-.9-.6-1.2.6-1.2.9 0 1.6.8 1.6 1.9zm-32.5 2.1c.3.5.1 1-.4 1-.6 0-1.1-.5-1.1-1 0-.6.2-1 .4-1 .3 0 .8.4 1.1 1zM97 148.5c0 .8-.4 1.5-1 1.5-.5 0-1-.7-1-1.5s.5-1.5 1-1.5c.6 0 1 .7 1 1.5zm11.4.1c.8 2.1-.1 3.4-2.5 3.4-1.4 0-1.9-.7-1.9-2.5 0-2.9 3.4-3.6 4.4-.9zm-4.8 17.1c.4 1.6 1 3 1.4 3.3.3.3 1.6 3.4 2.9 7 4.2 12 9.8 17.9 15.6 16.4 1.7-.4 3.2-.1 4.5 1.1 1.8 1.6 1.8 1.8-.5 8.3-2.9 8.4-5.3 16.7-6.1 20.9-.4 1.8-.9 3.3-1.3 3.3-.3-.1-2.3-1.6-4.4-3.5-3-2.6-3.8-4-3.6-6.2.2-1.7-1.1-5.6-3.1-9.6-3.4-7-3.6-8.7-2.7-19 .6-6.3-.8-11.8-4.3-16.7-2-2.8-2.6-6.1-1.3-7.3 1.3-1.3 2.3-.7 2.9 2zm33.2 6.8c.2.2-.2 2.1-.8 4.2-2.7 8.2-2.5 8.1-4.8 3.2-1.2-2.5-2.2-5.6-2.2-6.8 0-2.1.3-2.3 3.8-1.6 2 .4 3.9.8 4 1zM67 178c0 .5-.5 1-1.1 1-.5 0-.7-.5-.4-1 .3-.6.8-1 1.1-1 .2 0 .4.4.4 1zm5.8 2.2c1.7 1.7 1.5 6.3-.2 7.8-.8.6-2.5 1-3.8.8-3-.4-3.7-5.1-1.2-7.9 2-2.2 3.5-2.4 5.2-.7zm172.9 4.8c13.9 6.1 24.4 28.9 23 50-1.4 22.3-12.7 33-34.8 33-11.5 0-26.3-3.1-24.2-5.1.4-.4 3.7-1.5 7.2-2.4 18.6-4.8 33.3-19 34.1-33 .4-6.4-.1-8.4-2.9-11.4-3.6-3.8-7.8-4.1-10.9-.9-4.5 4.9-3.8 11.7 2 18.9l3.3 4.1-6 5.5c-6.4 5.8-17.7 12-23.6 12.9-4.3.7-8.9-1.9-13.2-7.4-3.7-4.8-5.1-10.2-5.1-19.7.1-13.3 5.6-24.9 17.5-36.7 10.1-9.9 22.3-12.7 33.6-7.8zm105.7 4.6c.6 1 1.4 2.1 1.7 2.4.7.6 2.2 3.3 7.6 14.1 4.4 8.6 7.3 19.8 7.3 27.2-.1 10.5-7.1 28.7-12.3 31.9-1.3.8-4-4.9-3.2-6.9.2-.8.1-1.2-.4-.8-.9.5-5.3-7.7-6.7-12.5-.6-2.4-.6-2.4 1.3-.8 2.6 2.4 4.5 2.3 6.1-.3 1.2-1.9 1.1-2-.7-1.4-3 .9-3.5-1.2-1-4.6 1.9-2.7 2.1-4 1.7-10.5-.4-6-1-7.9-2.8-9.9-1.3-1.4-3.1-2.5-4.1-2.5-2.1 0-5.9 4.6-5.9 7.1 0 1.1-.4 1.9-1 1.9-2.7 0 1-18.2 5.9-29.3 1-2.3 2.2-5 2.5-6 .7-2.2 2.5-1.8 4 .9zm-53.1 1.2c3.5 3 .7 12.2-3.8 12.2-.7 0-1.5.6-1.8 1.2-.5 1.5-4.8-2.5-6-5.4-1-2.7 1.2-7.7 4.1-9.2 2.8-1.5 4.7-1.2 7.5 1.2zM70 200.2c4.2 4.5 1.3 15.9-4.5 17.4-4 1-7.2-1-8.4-5.1-2.6-9.7 6.8-18.8 12.9-12.3zm32.5 2.8c.3.5-.3 1-1.4 1-1.2 0-2.1-.5-2.1-1 0-.6.6-1 1.4-1 .8 0 1.8.4 2.1 1zm1.9 9.6c.9.3 1.6 1 1.6 1.6 0 1.4-4.3.5-4.8-1-.4-1.3.7-1.5 3.2-.6zm205.6.8c0 .3-.4.8-1 1.1-.5.3-1 .1-1-.4 0-.6.5-1.1 1-1.1.6 0 1 .2 1 .4zm-210.2 2.3c-.5 2.5-2.8 2.8-2.8.4 0-1.2.6-2.1 1.6-2.1.9 0 1.4.7 1.2 1.7zm192.2 3.5c2.8 5.2-2.4 9.2-5.6 4.3-1.4-2.1-1.5-3-.5-5.1 1.4-3.2 4-2.8 6.1.8zm-46.6 1c2 2.8 2 7.8.1 10.4-1.5 1.9-1.6 1.8-4-.9-3.8-4.3-3.1-11.7 1.1-11.7.7 0 2 1 2.8 2.2zm56 2.5c.8 1.9-1.7 4.8-3.3 3.9-1.2-.8-1.5-3.9-.4-4.9 1.2-1.2 3.1-.7 3.7 1zm46 .9c1.4 3.7.6 8.3-2 11.1l-2.6 2.8-2.4-3c-2.4-3.1-2.6-4.9-.6-5.1.7-.1 1.6-.2 2.1-.3.5 0 1.5-1.7 2.2-3.6 1.4-3.8 2.4-4.4 3.3-1.9zm-238.4.9c0 .8-.4 1.5-1 1.5-.5 0-1-.7-1-1.5s.5-1.5 1-1.5c.6 0 1 .7 1 1.5zm173.3 5.8c2.1.8 2.2 2.3.2 3.1-1.1.4-1.9-.3-2.5-2-1.2-3-1.3-4.3-.2-2.8.4.6 1.5 1.3 2.5 1.7zm14.4 1.4c-.9.9-2 1.3-2.4.9-.4-.4.1-1.4 1.1-2.2 2.5-1.8 3.5-.8 1.3 1.3zm-186.9 6c.4 3.7-3.6 7.4-6.9 6.6-3-.8-4.5-4.7-3.1-7.8 2.6-5.6 9.4-4.7 10 1.2zm189.2-5.3c0 .2-.7.9-1.5 1.6-1.3 1.1-1.4 1-.9-.4.5-1.4 2.4-2.3 2.4-1.2zm22 1c0 .8-.4 1.8-1 2.1-.5.3-1-.3-1-1.4 0-1.2.5-2.1 1-2.1.6 0 1 .6 1 1.4zm100.1.6c2.6 1.5 2.4 2.6-.5 2.5-2.9 0-4.1-1-3.1-2.4.8-1.4 1.1-1.4 3.6-.1zm-352 2c2.8 1.5 2.6 7.4-.3 9.4s-3.4 2-5.8-.4c-2.5-2.5-2.5-4.1.1-7.4 2.3-2.9 3.1-3.1 6-1.6zm227.9 7c0 .5-.5 1-1.1 1-.5 0-.7-.5-.4-1 .3-.6.8-1 1.1-1 .2 0 .4.4.4 1zm112.5 2.8c1.7.5 3 1.5 3 2.3 0 1-1.7 1.5-6.7 1.7-6.1.3-6.9.6-9.2 3.3-4.4 5.2-3.7 6.3 6.7 9.9 11.6 4 22.2 9.6 31.5 16.7 9.9 7.6 14.4 12.9 14 16.8-.2 2.4-.8 3-2.8 3-2.1 0-2.6-.8-4-5.3-2.8-9.7-11.4-17.4-23.9-21.2-9-2.8-11-2.7-12.3 1-1.5 4.4-3.9 5.4-8.4 3.5-2-.8-4.7-1.5-6-1.5-2.6 0-5.4 3.4-5.4 6.5 0 2.6-1.8 4.5-4.3 4.5-1.7 0-1.8-.5-1.3-4.8 1.4-11.3 2.5-29.1 1.9-33.4-.4-3.9-.3-4.7 1.3-5 2.7-.5 22.5 1 25.9 2zm-292.8 2c.6.4 1.4 2.4 1.8 4.5.6 3 .4 3.7-.8 3.7-.9 0-2.2-.7-2.9-1.6-.7-.9-2.3-2.6-3.5-3.9-1.3-1.2-2.3-2.5-2.3-2.9 0-.8 6.2-.7 7.7.2zm-12.9 2.5c.5 2.7-2.7 6-4.5 4.6-.7-.6-1.3-1.9-1.3-2.8 0-3.9 5.1-5.4 5.8-1.8zm331.3 1.4c1.1 3-.1 4.9-2.6 4-1.9-.8-2.9-3.2-2.1-5.2.9-2.4 3.6-1.7 4.7 1.2zm-385.1.5c.5 1.3 2.5 8.6 4.4 16.3 3 11.8 5.1 18.8 10.1 33 .5 1.6.5 1.7-.4.5-1.3-1.9-5.7-14.3-11.1-31.7-2.3-7.4-5-13.9-6.1-14.9-1-.9-1.9-2.5-1.9-3.6 0-2.6 3.8-2.3 5 .4zm27 3.3c.8 1.7 2.2 3 3 3 1.9 0 2.5 3.2 1 5-.7.8-2 1.5-3 1.5-1.4 0-1.7-.5-1.2-2.2.4-1.8.2-2-1.8-1.5-5.1 1.3-8.1-4-4.4-7.8 2.3-2.2 4.6-1.5 6.4 2zm19-2.5c0 .5-.4 1-1 1-.5 0-1-.5-1-1 0-.6.5-1 1-1 .6 0 1 .4 1 1zm-10.7 3.6c-.3.8 0 1.4.6 1.4s1.1.7 1.1 1.5c0 1.9-1.9 1.9-2.6 0-.4-.8-1-1.2-1.5-.9-1.5.9-2.2-2.5-.9-4.1 1.5-1.8 4.2-.2 3.3 2.1zm327.1 1.9c.3.9 0 1.5-.9 1.5-.8 0-1.5-.7-1.5-1.5s.4-1.5.9-1.5 1.1.7 1.5 1.5zm-317.6 1.7c-.6 1.8-2.8 2.1-2.8.4 0-.9.7-1.6 1.6-1.6.9 0 1.4.5 1.2 1.2zm26 14c-2.6 2.3-3.4 2.2-5.8-.2-2.7-2.7-2.5-6.4.5-8.8 1.4-1.1 2.5-2.6 2.5-3.4 0-4 1.6-2.1 3.1 3.9 1.7 6.7 1.7 6.8-.3 8.5zm83.9-12.6c-.3.3-1.2.4-1.9.1-.8-.3-.5-.6.6-.6 1.1-.1 1.7.2 1.3.5zm124.1 1.1c3.2.8 2.5 4.4-1.2 6.2-4.8 2.3-20.2 1.5-22.5-1.2-3.7-4.5 12.1-7.9 23.7-5zM76.4 267c5 0 6.3 5.8 2 8.7-2.6 1.7-2.7 1.6-5-1-1.3-1.5-2.8-2.7-3.4-2.7-1.7 0-1.1-2.9 1.2-5.2 1.4-1.4 2.3-1.8 2.6-1 .2.7 1.4 1.2 2.6 1.2zm58.6 13c0 .5-.4 1-1 1-.5 0-1-.5-1-1 0-.6.5-1 1-1 .6 0 1 .4 1 1zm-28.3 8.4c-.4.9.3 1.6 2 2.1 2.9.7 11.3 6.8 12.8 9.3.6.9 1.6 1.7 2.4 1.7.8 0 1.6.6 1.9 1.3.3.9-.3 1.2-1.5 1-1.1-.1-3.4.9-5.1 2.4-1.8 1.5-4.8 3-6.6 3.4-8.7 1.6-22.6-6.6-22.6-13.3 0-4.6 4.1-7.8 9.6-7.6 2.4.1 4.4-.3 4.4-.8s.7-.9 1.6-.9c1 0 1.4.6 1.1 1.4zm273.7 13.8c3.9 9 1.8 16.8-4.6 16.8-2.1 0-2.8.5-2.8 2 0 3.4-2.8 9-4.4 9-.9 0-1.6-.5-1.6-1 0-2.1-1.6-.9-3 2.2-.7 1.8-1.5 3.6-1.7 3.9-.2.4.7.9 2 1.3 3.3.8 4 3 1.9 5.6-2.5 3.1-5.5 1.7-5-2.2.6-3.5-.7-4.6-2.1-1.9-1.2 2.2-12.1 7.6-17.4 8.6-1.9.4-4.2.3-5.1-.2-1.2-.7 0-2.4 6.2-8.8 4.3-4.4 11.6-11.5 16.3-15.7 7.8-7.3 15.2-17.3 16.6-22.8.9-3.3 2.2-2.4 4.7 3.2zm-243.7.8c2.3 4.3 1.4 5.2-2.5 2.4-1.5-1-2.2-2.4-2-4.4.3-3.6 1.8-3 4.5 2zm3.9-3.6c.3.8.4 2.2.2 3-.2 1.1-.8.7-2-1.4-1.5-2.6-1.5-3-.2-3 .8 0 1.7.6 2 1.4zm271.5 2.7c5.5 2.4 8.7 5.3 6.9 6.4-.7.4-1.8-.2-2.6-1.4-2.2-3.1-4.7-2.6-9.9 1.9-3.2 2.8-5.6 4-7.6 4-4.4 0-6.9-1.7-6.9-4.5 0-1.4-.4-2.5-1-2.5-1.9 0-1-2.9 1.2-4.1 6.2-3.3 11.8-3.3 19.9.2zm-343.2 9.4c0 .5-.8-.6-1.9-2.5-1.1-1.9-1.9-4-1.9-4.5 0-.6.8.6 1.9 2.5 1.1 1.9 1.9 3.9 1.9 4.5zm123.5-6c-.4.8-1.4 1.5-2.3 1.5-1.4-.1-1.3-.3.3-1.5 2.5-1.9 2.7-1.9 2 0zm195.5 5.1c-1.6 2-3.9 1.7-3.9-.4 0-2.7 1-3.3 3.2-2.1 1.5.8 1.7 1.3.7 2.5zm-253.3.1c.3 1 1.1 2.9 1.9 4.3 1.8 3.5.3 7-2.9 7-1.4 0-2.8-.5-3.1-1-.4-.7-1.6-.1-3 1.5-2.8 2.9-4.7 3.2-6.9.9-3.3-3.3-.7-9.4 4-9.4 1.5 0 2.2-.5 1.8-1.3-.5-1.4 2.9-3.5 5.9-3.6 1-.1 2 .7 2.3 1.6zm313.4-.2c0 .8-.4 1.5-1 1.5-.5 0-1-.7-1-1.5s.5-1.5 1-1.5c.6 0 1 .7 1 1.5zm-20.2 1.8c.2 1-.3 1.7-1.2 1.7-1.8 0-2.9-1.6-2.1-3.1.9-1.4 2.9-.6 3.3 1.4zm-270.6 0c.9.1 1.4.5 1.2.9-.3.4.4 1.2 1.5 1.7 1.1.6 2.3 2 2.6 3.1.6 2-1 8.7-2.5 10.4-.5.4-3.8-2.9-7.4-7.5-7-8.9-7.2-10.5-.6-9.3 1.9.3 4.3.6 5.2.7zM71.5 316c.9 1.6 1.3 3 1.1 3-.3 0-1.2-1.4-2.1-3-.9-1.7-1.3-3-1.1-3 .3 0 1.2 1.3 2.1 3zm327.5.7c1.3 1.2 1.3 1.5 0 2.3-2.3 1.5-7.2.7-8.4-1.3-2.2-3.6 4.7-4.5 8.4-1zm-249 6 6.2 7.8-3.2.3c-1.8.2-3.7-.1-4.3-.7-1.5-1.5-2.7-1.4-2.7.3 0 2.4-4 4.7-6.2 3.5-2.5-1.3-2.4-6.4.2-8.2 1.6-1.1 1.9-1.9 1.2-3.8-.9-2.4.3-6.9 1.9-6.9.4 0 3.5 3.5 6.9 7.7zm-74.5-.1c.9 1.5 1.2 2.3.6 2-1.1-.7-3.5-4.6-2.8-4.6.3 0 1.2 1.2 2.2 2.6zm106.2 0c.3.8-.1 2.3-1 3.1-1.6 1.6-4.7 1.2-4.7-.6 0-.5.7-1.7 1.6-2.5 2-2 3.3-2 4.1 0zm-43.2 2.4c.3.5.1 1-.4 1-.6 0-1.1-.5-1.1-1 0-.6.2-1 .4-1 .3 0 .8.4 1.1 1zm281.5 3.5c0 2.6-2.2 3.9-3.9 2.2-1.5-1.5-1.4-4.4.2-5 2.1-.7 3.7.4 3.7 2.8zm-340.9-.8c1.3 1.6 1.2 1.7-.3.4-1-.7-1.8-1.5-1.8-1.7 0-.8.8-.3 2.1 1.3zm50.4 2.3c-.5.8-1.1.8-1.7.2-.6-.6-.7-1.6-.3-2.2.5-.8 1.1-.8 1.7-.2.6.6.7 1.6.3 2.2zm-44 5c2.7 2.7 4.7 5 4.4 5-.3 0-2.7-2.3-5.4-5-2.7-2.8-4.7-5-4.4-5 .3 0 2.7 2.2 5.4 5zm77.5-2.9c0 .6-.4.7-1 .4-.5-.3-1-1.1-1-1.6 0-.6.5-.7 1-.4.6.3 1 1.1 1 1.6zm45 7.9c0 .5-.2 1-.4 1-.3 0-.8-.5-1.1-1-.3-.6-.1-1 .4-1 .6 0 1.1.4 1.1 1zm-114.9 1.7c1.3 1.6 1.2 1.7-.3.4-1-.7-1.8-1.5-1.8-1.7 0-.8.8-.3 2.1 1.3zm5.9 3.9c0 .2-.9 0-2-.6s-2-1.3-2-1.6c0-.2.9 0 2 .6s2 1.3 2 1.6zm273.7 3.1c5.6 1.4 7.3 2.2 7.3 3.5 0 2.4-3.2 2.3-5.5-.2-3.8-4.2-15.1-1.4-16.1 3.9-1.3 6.4-8.1 8-10.6 2.5-1-2-.8-2.9.8-5.2 4.6-6.2 11.7-7.5 24.1-4.5zm-170.7.1c0 1.3-1.2 2.2-2.2 1.6-1-.6-.1-2.4 1.3-2.4.5 0 .9.4.9.8zm2.8 4.5c.4 2-2.5 3.4-4 1.9s-.1-4.4 1.9-4c1 .2 1.9 1.1 2.1 2.1zm240.8.2c1.5 2.3 1.5 2.7 0 5.1-3.3 5-7.6 3.8-7.6-2 0-5.7 4.6-7.6 7.6-3.1zm-10 1.2c-1 1-1.9-.5-1-1.8.6-1.1.8-1.1 1.2 0 .2.7.1 1.5-.2 1.8zm-44.8 0c.2.8-.5 1.3-1.7 1.3s-2.1-.6-2.1-1.6c0-1.8 3.1-1.5 3.8.3zm-168 1c-.2 1-1 1.8-1.8 1.8s-2.5.7-3.7 1.5c-4.2 3-.4 9 4.9 7.7.7-.2 1-.2.6 0s-.4 1.1-.1 1.9c.3.8 0 2.1-.7 2.9-2 2.4-5 1.8-6.3-1.3-.7-1.6-2-2.7-3.1-2.7s-2.7-1.3-3.7-3.2c-1.5-2.7-1.6-3.3-.4-4.3.8-.6 2.3-.9 3.5-.5 1.3.4 2 .2 2-.6 0-2.2 3.4-4.8 6.3-4.8 2.2-.1 2.8.3 2.5 1.6zM337 357c0 .5-.5 1-1.1 1-.5 0-.7-.5-.4-1 .3-.6.8-1 1.1-1 .2 0 .4.4.4 1zm-21 3.5c0 .8-.7 1.5-1.5 1.5s-1.5-.7-1.5-1.5.7-1.5 1.5-1.5 1.5.7 1.5 1.5zm-115 3.9c0 .8-.4 1.7-.9 2.1-1.2.7-2.4-1.2-1.6-2.5.9-1.5 2.5-1.2 2.5.4zm-29 1.7c0 .5-.7.9-1.5.9-1.5 0-2-1.2-.9-2.3.8-.8 2.4.1 2.4 1.4zm167-.2c0 .5-.7 1.4-1.5 2.1-1.2 1-1.5 1-1.5-.2 0-.8.3-1.8.7-2.1.9-1 2.3-.9 2.3.2zm-22.6 2.3c2.3 3.7-3.6 7.7-6.4 4.4-1-1.3-.9-2 .4-4.2 1.9-2.8 4.3-2.9 6-.2zM191 368c0 .5-.5 1-1.1 1-.5 0-.7-.5-.4-1 .3-.6.8-1 1.1-1 .2 0 .4.4.4 1zm119.8 9.2c-.6 1.8-2.8 2.1-2.8.4 0-.9.7-1.6 1.6-1.6.9 0 1.4.5 1.2 1.2zm-95.8.6c0 1.3-1.2 2.2-2.2 1.6-1-.6-.1-2.4 1.3-2.4.5 0 .9.4.9.8zm111 2.6c0 .8-.4 1.7-.9 2.1-1.2.7-2.4-1.2-1.6-2.5.9-1.5 2.5-1.2 2.5.4zm-19 2c0 2.8-2.4 4.1-4 2.1-1.6-2-.5-4.5 2-4.5 1.4 0 2 .7 2 2.4zm-137.7 1c.8 2-2 4.3-3.5 2.8-1.4-1.4-.3-4.2 1.6-4.2.7 0 1.6.6 1.9 1.4zM246 386c0 .5-.4 1-1 1-.5 0-1-.5-1-1 0-.6.5-1 1-1 .6 0 1 .4 1 1zm109 7c2.4 2.4 2.5 4.3.4 7.6-2.4 3.6-4.9 4.7-7.5 3.3-1.8-.9-2.1-1.7-1.6-5.2.4-2.6 1.4-4.9 2.7-5.9 2.8-2.3 3.6-2.2 6 .2zm-162.5 5c.3.5.1 1-.4 1-.6 0-1.1-.5-1.1-1 0-.6.2-1 .4-1 .3 0 .8.4 1.1 1zm138.3 2.2c-.4 2.9-3.8 3.8-3.8 1 0-2.2.8-3.2 2.7-3.2.9 0 1.3.8 1.1 2.2zm-18.8.8c0 .5-.5 1-1.1 1-.5 0-.7-.5-.4-1 .3-.6.8-1 1.1-1 .2 0 .4.4.4 1zm-17.7 5.6c1.1 1.1-.5 3.4-2.4 3.4-1.8 0-2.6-2-1.2-3.3.8-.9 2.8-.9 3.6-.1zm-86.3 8.1c2.2 1.5 2.8 4.7.8 4.1-1.9-.7-5.8-6.8-5.8-9.2 0-1.8.2-1.6 1.5.8.9 1.6 2.5 3.6 3.5 4.3z"/><path d="M151 114.4c0 .2.7.9 1.5 1.6 1.2 1 1.5 1 1.5-.4 0-.9-.7-1.6-1.5-1.6s-1.5.2-1.5.4zM155 130c0 2.3.4 2.8 2 2.7 1.3-.1 1.9-.6 1.5-1.5-.3-.7-.5-1.7-.5-2.2 0-.4-.7-1-1.5-1.4-1.1-.4-1.5.2-1.5 2.4zM151 261c-.8.5-2.9 1.4-4.6 2.1-2.9 1.2-3.1 1.5-2.3 4.2.9 3.2 5.5 9.7 6.9 9.7 1.1 0 7-8 7-9.4 0-.6-1.3-2.5-2.8-4.3-1.9-2.2-3.1-2.9-4.2-2.3zM156.7 260.6c-.9 1 1.2 4.6 2.4 3.9 1.4-.9 1.1-4.5-.4-4.5-.8 0-1.7.3-2 .6zM156 273.6l-4.2 4.6 2.4 1.6c1.2.9 3.1 1.5 4.1 1.4 1-.2 1.7.3 1.7 1.1 0 1.8 2.7 3 3.5 1.7.4-.6.2-1-.3-1-1.5 0-1.9-6.7-.6-9.2.9-1.6.9-2.7.2-3.5-1.6-2-2.2-1.7-6.8 3.3zM213.7 318.6c-.8.8.1 2.4 1.4 2.4.5 0 .9-.7.9-1.5 0-1.5-1.2-2-2.3-.9zM221.3 345.4c.4 1 .7 2.2.7 2.7s.5.9 1.1.9c1.5 0 .7-4.3-1-4.8-1-.3-1.2 0-.8 1.2zM244.6 348.9c-1 1.5.5 4.1 2.3 4.1.9 0 2.7.7 3.9 1.6 3.1 2.2 2.7.2-.7-3.5-3-3.2-4.6-3.8-5.5-2.2zM236.7 353c.3 1.1.7 2 .9 2 .2 0 .8-.9 1.4-2 .9-1.7.8-2-.9-2-1.4 0-1.8.5-1.4 2zM257 354.9c0 2.6 1 3.1 4 1.9 2.4-.9 2.4-1 .6-2.4-2.7-2-4.6-1.8-4.6.5zM109.4 199.6c.8 5.9 3.3 11.4 4.1 9.3.8-2.1-1-8.9-3-11.4-1.5-1.9-1.6-1.8-1.1 2.1zM217.8 204.2c.6.6.8 1.7.5 2.4-.3.8 0 1.4.7 1.4s1 .7.6 1.5c-1 2.7.9 1.6 2.7-1.6 2.4-4.3 2.2-4.7-1.9-4.7-2.5 0-3.3.3-2.6 1zM223.5 214c.3.5 1 1 1.6 1 .5 0 .9-.5.9-1 0-.6-.7-1-1.6-1-.8 0-1.2.4-.9 1zM217.5 217c-.3.5.1 1 1 1s1.3-.5 1-1c-.3-.6-.8-1-1-1-.2 0-.7.4-1 1zM212.4 221.8c2.2 2.6 3.6 2.8 3.6.7 0-.8-.4-1.5-.9-1.5s-1.8-.3-2.8-.7c-1.7-.6-1.7-.5.1 1.5zM208.6 226.8c-.8 1.3.5 5.2 1.6 5.2.6 0 .8.9.5 2-.4 1.4 0 2 1.2 2 2.5 0 4.1-2 4.1-5 0-1.4-.5-3.1-1.2-3.8-1.4-1.4-5.4-1.6-6.2-.4zM.1 382.7 0 500l116.8-.2c64.2 0 115.1-.3 113.2-.5-34.4-3.3-64-11.7-93.3-26.5C97.3 453 59.8 418.3 36.4 380 17.3 348.6 4.6 310.4 1.1 274c-.5-4.9-.9 41.3-1 108.7zM499 270.6c0 13-6 41.4-13.1 62.2-4.5 13.2-16.3 38-23.5 49.2-14.5 22.8-38.3 49.4-57.4 64.2-36.2 28-77 45.4-120 51.2-6.3.9-13.1 1.7-15 1.9-1.9.2 49 .5 113.3.5l116.7.2V383c0-64.4-.2-117-.5-117s-.5 2.1-.5 4.6z"/></svg>