
<svg xmlns="http://www.w3.org/2000/svg" xml:space="preserve" viewBox="0 0 667 667"><path fill="#222" d="M668 508v160c-12.352 0-24.707 0-37.854-.26-1.934-.417-3.076-.707-4.219-.708-21.661-.012-43.323.01-65.45.023-26.408-.02-52.351-.058-78.294-.014-1.728.002-3.455.625-5.183.959-1.389 0-2.778 0-4.857-.323-2.17-.443-3.65-.67-5.13-.668-24.352.019-48.703.066-73.517.054-8.887-.054-17.31-.054-25.733-.054 5.514-1.45 11.072-2.211 16.625-3.009 39.819-5.718 77.228-18.718 112.222-38.34 62.008-34.768 108.09-84.632 139.06-148.561 16.269-33.584 25.688-69.12 30.712-105.727.48 9.677.656 19.072.76 28.941-.092 34.794-.123 69.114-.088 103.434.002 1.418.617 2.835.946 4.253zM1 509c0-15.354 0-30.708.258-46.856.419-5.878.748-10.967.684-16.05-.046-3.701-.61-7.396-.942-11.094 0-19.02 0-38.042.345-57.722.534-2.603.722-4.547.91-6.492.861 2.539 1.271 5.085 1.64 7.637 9.527 65.907 34.832 124.723 79.213 174.769 51.32 57.87 114.535 95.113 191.02 108.986 8.596 1.56 17.19 3.126 25.323 4.727-8.766.114-17.071.19-25.845.195-18.813-.04-37.158-.006-55.975-.03-30.846-.043-61.22-.031-92.065-.041-23.758-.019-47.044-.035-70.33.032-1.746.005-3.49.612-5.236.939H1c0-26.354 0-52.708.262-79.853.416-1.597.704-2.402.705-3.208.03-24.073.046-48.145-.006-72.217-.002-1.241-.626-2.481-.961-3.722zM619 1h49c0 19.354 0 38.708-.26 58.854-.417 1.934-.708 3.076-.708 4.219-.01 35.993.008 71.987.016 108.444.052 12.19.108 23.915.144 36.096-.068 8.893-.175 17.332-.118 25.77.013 1.875.602 3.745.926 5.617 0 13.354 0 26.708-.368 40.744-.575 4.145-.782 7.61-.99 11.074-1.299-.862-1.567-1.725-1.698-2.607-4.362-29.41-12.037-57.849-23.801-85.233C609.62 130.601 557.613 76.111 487.786 38.5 451.568 18.993 412.38 8.086 371.558 3.067 370.306 2.913 369.183 1.713 368 1c3.693 0 7.386 0 11.79.345 17.496.382 34.28.42 51.537.52 37.528.069 74.582.076 112.107.106 23.758.018 47.044.035 70.33-.032 1.746-.005 3.49-.612 5.236-.939zM1 72V1c15.02 0 30.041 0 45.855.258 1.936.412 3.078.7 4.221.7 23.323.013 46.645-.006 70.434-.012 32.18-.026 63.893-.06 96.065-.074 22.14-.005 43.82-.028 65.961 0 6.051.369 11.642.686 16.802 1.015-26.58 3.082-52.23 8.22-77.09 17.208C153.304 45.385 97.79 89.218 56.323 150.65 26.792 194.4 9.883 243.083 3.012 295.336c-.17 1.287-1.32 2.446-2.012 3.664 0-11.354 0-22.708.31-34.816.351-9.836.394-18.92.516-28.476.092-16.533.104-32.591.136-49.122.022-36.764.038-73.056-.015-109.349C1.944 75.491 1.33 73.746 1 72z"/><path fill="#B9A5CB" d="M1 299.469c.692-1.687 1.842-2.846 2.012-4.133 6.87-52.253 23.78-100.936 53.31-144.686C97.79 89.218 153.305 45.385 223.249 20.095c24.86-8.988 50.51-14.126 77.492-17.137 2.308-.613 3.784-1.286 5.26-1.958h61.531c1.652.713 2.775 1.913 4.027 2.067 40.822 5.019 80.01 15.926 116.228 35.433 69.828 37.61 121.834 92.101 153.357 165.478 11.764 27.384 19.44 55.824 23.801 85.233.131.882.4 1.745 1.698 2.607.208-3.464.415-6.93.99-10.606.368 25.476.368 51.163-.027 77.364-.772 4.514-1.149 8.514-1.525 12.514-4.722 36.89-14.141 72.425-30.41 106.009-30.97 63.93-77.052 113.793-139.06 148.562-34.994 19.62-72.403 32.62-112.222 38.34-5.553.797-11.11 1.557-16.625 3.008 8.423 0 16.846 0 25.76.274.49.273.477.717.477.717-31.02 0-62.042 0-93.521-.286-.495-.472-.53-.66-.566-.846-8.595-1.564-17.19-3.13-25.785-4.69-76.485-13.873-139.7-51.116-191.02-108.986C38.727 503.146 13.422 444.33 3.895 378.423c-.369-2.552-.779-5.098-1.64-7.637-.188 1.945-.376 3.889-.91 6.024C1 351.312 1 325.625 1 299.469m106.034 267c5.61 5.221 10.956 10.766 16.872 15.616 77.483 63.528 165.793 88.356 264.876 72.725 45.12-7.117 86.875-23.83 124.95-49.145 56.581-37.619 97.708-88.235 122.96-151.139 26.8-66.757 30.33-135.491 11.439-204.782-22.334-81.916-69.851-146.079-141.909-190.959C434.558 14.151 356.546-.717 273.384 15.111 199.59 29.156 137.72 65.02 88.984 121.956c-68.261 79.746-92.607 172.203-73.31 275.226 12.274 65.526 42.79 122.096 91.36 169.286z"/><path fill="#302F34" d="M1 72.469c.33 1.277.944 3.022.947 4.768.053 36.293.037 72.585-.22 109.332C1.472 187.023 1 187 1 187V72.469zM667.053 172.054c-.013-35.994-.031-71.988-.021-107.981 0-1.143.29-2.285.707-3.75.261 36.698.261 73.719.024 111.219-.237.479-.71.512-.71.512z"/><path fill="#44414C" d="M542.962 1.949c-37.053-.008-74.107-.015-111.598-.285C430.927 1.403 431 1 431 1c37.02 0 74.042 0 111.526.237.463.238.436.712.436.712zM668 507.531c-.33-.949-.944-2.366-.946-3.784-.035-34.32-.004-68.64.286-103.404.271-.445.66-.343.66-.343v107.531zM217.116 1.854c-31.713.033-63.427.066-95.62-.142C121.014 1.47 121 1 121 1c31.688 0 63.375 0 95.554.214.492.215.562.64.562.64zM126.038 667.051c30.373-.012 60.747-.024 91.558.236.437.273.404.713.404.713-30.354 0-60.708 0-91.526-.237-.462-.238-.436-.712-.436-.712zM477.469 668c1.259-.334 2.986-.957 4.714-.96 25.943-.043 51.886-.005 78.313.25.483.237.504.71.504.71h-83.531z"/><path fill="#302F2F" d="M1 509.469c.335.772.959 2.012.961 3.253.052 24.072.036 48.144.006 72.217-.001.806-.289 1.611-.705 2.739C1 561.979 1 535.958 1 509.468z"/><path fill="#9183A1" d="M394.469 668c-.469 0-.455-.444-.482-.664 24.323-.261 48.674-.308 73.025-.327 1.48-.001 2.96.225 4.714.668-25.414.323-51.101.323-77.257.323z"/><path fill="#34333B" d="M543.434 1.971c-.472-.022-.445-.496-.44-.734C568.021 1 593.042 1 618.531 1c-1.276.327-3.021.934-4.767.939-23.286.067-46.572.05-70.33.032zM125.566 667.029c.472.022.446.496.44.734-25.027.237-50.048.237-75.537.237 1.276-.327 3.021-.934 4.767-.939 23.286-.067 46.572-.05 70.33-.032zM120.531 1c.469 0 .484.47.498.705-23.308.247-46.63.266-69.953.253-1.143 0-2.285-.288-3.752-.7C71.354 1 95.708 1 120.531 1z"/><path fill="#302F34" d="M561.469 668c-.469 0-.49-.473-.508-.708 21.643-.25 43.305-.272 64.966-.26 1.143.001 2.285.291 3.75.707-22.365.261-45.052.261-68.208.261z"/><path fill="#6C6378" d="M217.575 1.872c-.459-.018-.529-.443-.552-.658C238.688 1 260.375 1 282.55 1.206c.488.205.526.616.526.616-21.68.022-43.362.045-65.501.05zM218.469 668c-.469 0-.436-.44-.4-.657 18.38-.25 36.724-.282 55.517-.036.448.279.414.693.414.693h-55.531zM668 399.531c0 .469-.389.367-.587.338-.375-9.425-.552-18.82-1.031-28.497.074-4.282.45-8.282 1.223-12.327.395 13.31.395 26.663.395 40.486zM430.531 1c.469 0 .396.403.359.603-16.82.162-33.604.124-50.639-.258C396.688 1 413.375 1 430.531 1z"/><path fill="#44414C" d="M1 187.469c0-.469.472-.446.707-.428a1565.4 1565.4 0 0 1-.07 48.636C1.367 236.121 1 236 1 236v-48.531zM667.049 172.517c.004-.463.477-.496.714-.507.237 11.678.237 23.365.042 35.572-.195.52-.593.576-.593.576-.056-11.726-.112-23.451-.163-35.64z"/><path fill="#6C6378" d="M667.192 208.613c.02-.455.418-.512.613-.562.195 10.303.195 20.657.195 31.48-.324-1.403-.913-3.273-.926-5.148-.057-8.438.05-16.877.118-25.77z"/><path fill="#9183A1" d="M283.536 1.873c-.46-.051-.498-.462-.517-.667C290.354 1 297.709 1 305.53 1c-1.007.672-2.483 1.345-4.36 1.946-5.993-.388-11.584-.705-17.635-1.073z"/><path fill="#6C6378" d="M1 236.469c0-.469.367-.348.557-.318.147 9.114.104 18.197-.248 27.565C1 254.979 1 245.958 1 236.469z"/><path fill="#34333B" d="M1 435.469c.333 3.229.896 6.924.942 10.625.064 5.083-.265 10.172-.684 15.582C1 453.312 1 444.625 1 435.469z"/><path fill="#9183A1" d="M274.469 668c-.469 0-.435-.414-.415-.62 8.326-.284 16.63-.361 25.397-.475.497.15.533.337.559.81-8.364.285-16.718.285-25.541.285z"/><path fill="#232323" d="M106.783 566.219c-48.319-46.941-78.835-103.511-91.108-169.037-19.298-103.023 5.048-195.48 73.31-275.226C137.72 65.019 199.59 29.156 273.383 15.11c83.162-15.828 161.174-.96 232.838 43.674 72.058 44.88 119.575 109.043 141.909 190.959 18.892 69.29 15.362 138.025-11.438 204.782-25.253 62.904-66.38 113.52-122.962 151.14-38.074 25.313-79.83 42.027-124.949 49.144-99.083 15.631-187.393-9.197-264.876-72.725-5.916-4.85-11.261-10.395-17.123-15.866M271.328 434.34c-.129.545-.257 1.09-.329 1.647 0 0-.016-.056-.563-.721-4.285 1.477-7.41 5.837-12.966 4.521-1.454-.344-3.7 2.243-5.447 3.652-2.27 1.832-4.116 4.42-6.646 5.653-8.877 4.327-17.968 8.213-27.838 12.48l-.774 1.79c.895-.178 1.79-.356 3.473-.603 4.598-.605 9.2-1.19 13.79-1.842.596-.085 1.506-.398 1.652-.82 1.3-3.737 4.535-4.959 7.74-6.382 5.023-2.23 9.962-4.648 16.016-6.72.362.077.725.156.609.809-.993 2.032-2.675 4.018-2.815 6.107-.206 3.075-1.076 4.528-4.884 3.965-5.793-1.604-8.518 2.315-11.046 6.308-2.341 3.697-1.456 7.24.985 10.622 4.79 6.637 10.824 1.698 15.286 2.125l2.403-6.12c1.153 1.01 1.682 1.728 2.387 2.017.637.262 1.467.055 3.195.055-1.285-2.454-2.066-4.269-3.136-5.893-.95-1.442-2.22-2.673-2.94-4.71l3.18-11.182 2.057.645c.583 3.282.691 5.642 1.555 7.684.257.609 3.39.949 3.894.335 1.757-2.14 2.94-4.75 4.343-7.183l-.64-.265c2.712-2.104 5.423-4.208 8.825-6.36.468.681.936 1.362 1.286 2.787 3.146 5.36 4.85 10.707 1.625 16.867-.619 1.183.808 4.562 2.191 5.352 1.4.799 3.935-.267 5.94-.677 3.9-.799 7.778-1.71 11.543-2.548-1.042 3.406-1.836 5.998-3.084 9.14l-7.587 6.614c3.953 6.404 9.783-1.076 15.486 2.523-6.525 6.513-12.648 12.625-19.323 19.029l-18.529 17.682c4.034.622 7.125.117 10.17.316 3.97.258 7.904 1.063 11.85 1.653 7.129 1.064 10.397-.505 13.902-6.864 1.601-2.904 3.045-5.895 5.048-9.39l6.033-14.064c3.042 6.666 8.084 4.349 12.78 4.162.383 3.625.744 7.041 1.02 11.188 1.492 2.534 2.527 5.541 4.564 7.512 5.73 5.543 13.182 7.682 20.84 8.66 13.726 1.75 23.05-3.889 27.88-16.216.423-1.077 1.44-2.266 2.475-2.696 3.662-1.522 3.261-3.89 2.566-5.426-2.39-.286-3.784-.453-5.296-1.363-.86-3.188-3.225-7.001-2.223-9.417 1.458-3.517 5.342-6.027 8.277-8.184-1.53 3.49-3.417 6.76-.21 10.588 4.045 4.83 8.203 4.342 13.042.775-1.294 3.137-1.868 6.116-6.073 5.382-2.273-.397-4.335.45-3.874 3.634.306 2.111.34 4.262.493 6.345 1.397-.618 3.12-2.123 4.501-1.855 4.483.869 4.572-2.062 4.94-4.917.164-1.278-.373-2.97.272-3.81 5.376-7 4.18-14.899 3.594-23.622l1.69-8.524c2.172.99 4.27 2.37 6.548 2.804 1.142.218 3.622-1.127 3.765-2.038.695-4.402.801-8.897 1.348-14.164 1.268-11.065 2.535-22.129 3.96-34.03-.867-8.443-3.475-16.155-9.82-23.045-6.11-4.34-12.22-8.682-18.668-13.609-2.67-3.885-6.235-7.453-7.756-11.745-1.491-4.206-.902-9.15-.997-14.526.761-2.62 1.522-5.238 2.868-8.23 4.967-4.759 9.648-9.871 14.983-14.173 5.063-4.083 10.81-7.316 17.031-10.977l7.174-2.86c-3.606 7.969 1.212 10.292 6.123 12.944 11.523 6.221 14.66 17.21 14.24 28.974-.385 10.727-2.627 21.387-4.266 32.897-.076 4.153-.387 8.322-.124 12.453.122 1.917 1.36 3.764 2.091 5.642 1.698-1.187 3.918-2.022 5.002-3.624 4.184-6.183 8.398-12.403 11.878-18.991 6.944-13.147 5.832-26.197-1.816-39.502-2.778-5.274-5.515-10.57-8.34-15.818-5.918-10.993-10.018-22.634-8.925-35.183 1.044-11.99 3.41-23.863 5.706-36.272 2.487-5.413 5.077-10.783 7.394-16.267.66-1.56 1.342-4.001.608-5.1-2.564-3.84-5.744-7.27-9.015-11.253-3.82 8.49-9.362 14.788-10.797 23.686-1.936 4.386-4.06 8.7-5.772 13.172-4.797 12.52-4.992 25.678-5.244 38.844-.046 2.422-1.23 4.822-1.98 7.56l1.319 1.195c-2.283 1.488-4.225 2.753-6.861 4.308l-8.837 4.027c-6.517 4.88-13.55 8.61-22.966 8.083-1.811-.825-3.63-1.634-5.432-2.478-4.67-2.185-8.929-4.117-9.062-10.8-.103-5.146-4.458-7.206-8.775-5.704.223 1.487.919 3.068.556 4.349-.722 2.547-2.07 4.91-3.083 7.382-2.872 7.013-4.553 14.843-8.777 20.907-11.058 15.878-27.725 20.188-46.109 19.071-7.446-.452-14.838-1.804-22.84-3.242-9.818-4.158-19.635-8.316-29.848-13.05-10.137-5.874-19.331-12.883-26.906-22.693-7.633-12.865-15.266-25.73-22.968-39.35-3.407-10.053-6.815-20.105-10.167-30.95l-6.208-25.416c-1.9 2.603-2.323 5.127-3.516 7.209-4.189 7.31-5.507 14.729-2.509 22.868.754 2.046.113 4.605.113 7.593l-8.553-3.14c-3.479 12.723-6.803 25.011-10.214 37.275-1.092 3.923-.458 7.327 1.585 10.913 4.378 7.681 3.465 12.961-2.585 19.504a11.672 11.672 0 0 0-2.133 3.32c-1.58 3.742-.383 5.306 3.714 4.844 2.468-.278 4.908-.794 8.095-1.053 3.179.163 4.708 1.912 5.158 4.999.234 1.6.526 3.494 1.513 4.626 3.841 4.404 7.97 8.556 12.02 12.776.02.021.43-.33.621-.574 0 0-.077-.004-.8.43a48.873 48.873 0 0 1 1.957 3.072c.259.495.517.99 1.028 2.252.613.105 1.225.21 1.815.212 0 0-.066-.084-.818.37l4.132 8.386c4.294-1.086 13.03 6.45 13.66 11.704.33 2.75 1.812 6.614 3.877 7.554 2.082.95 5.574-.964 8.358-1.893 1.237-.413 2.253-1.489 4.496-3.045-1.033 8.516 4.32 11.123 9.724 14 2.822-2.616 5.71-5.293 9.312-8.058 2.563.541 6.664.29 7.422 1.762 3.163 6.143 8.588 6.743 14.23 7.259 4.713.43 8.293 2.442 10.875 6.552-3.673.91-6.993 1.733-11.202 2.454-6.397.114-12.796.355-19.191.277-2.39-.028-4.341-1.264-3.066-4.172 1.541-3.518-.77-3.698-2.931-3.206-4.112.935-8.122 2.322-13.005 3.664-7.607 2.163-15.318 4.88-19.729-5.274-.29-.668-2.268-.604-3.461-.88-.193 1.207-.987 2.945-.472 3.528 1.91 2.163 4.157 5.453 6.448 5.597 7.687.482 11.136 7.683 17.545 9.87a760.25 760.25 0 0 1 11.674 4.11c7.548 1.733 15.97-1.89 23.005 3.983.595-1.155.869-2.49 1.684-3.09 1.369-1.006 3.039-1.687 4.68-2.182.429-.13 1.831 1.17 1.74 1.401-.556 1.411-1.343 2.751-2.2 4.016-.451.666-1.199 1.132-1.734 1.726 0 0-.108.077-.659.334-.136.15-.272.3-1.113.67m-86.475 36.528 5.49-1.09-.27-1.339c-2.006.247-4.013.493-6.797.606-2.28.573-4.544 1.555-6.84 1.636-4.838.17-9.692-.133-15.368-.298l-19.362-4.49-.336 1.727c6.843 1.313 13.687 2.625 21.44 4.232 6.748-.339 13.496-.678 20.737-.92.16-.05.32-.1 1.306-.064m205.523 46.603 5.012-7.498-1.542-.985c-1.678 2.573-3.356 5.147-5.591 8.139-3.271 7.03-6.316 14.178-9.9 21.046-2.143 4.108-1.964 6.103 3.357 9.592.84-10.76 2.16-21.026 8.664-30.294M108.166 345.87c-1.803-1.856-3.729-3.61-5.382-5.59-3.005-3.602-6.613-3.581-8.642.589-.813 1.671-1.093 4.717-.117 5.874 1.358 1.61 4.09 2.133 6.306 2.916.792.28 1.796-.039 2.696-.083l.55 4.519c6.305-.313 7.764-2.791 5.968-8.676l7.74 4.042c-1.007-2.82-1.548-4.742-2.383-6.527-.548-1.174-1.52-2.15-2.302-3.216-1.012 1.092-2.172 2.086-2.983 3.311-.522.788-.532 1.915-1.451 2.841M79.23 385.68l6.548 18.006 1.494-.566c-2.329-6.465-4.658-12.93-7.11-20.16-3.476-12.95-6.932-25.904-10.448-38.842-.648-2.386-1.062-5.067-2.478-6.933-.976-1.286-3.495-1.4-5.324-2.038.068 1.653-.323 3.503.285 4.926 2.52 5.897 5.737 11.518 7.958 17.515 3.332 8.996 6.043 18.223 9.075 28.092m497.981-11.027c6.876 5.373 11.647 12.16 13.918 20.642.256.957.41 2.266 1.08 2.72 1.473.997 3.349 2.26 4.862 2.043 1.064-.153 2.768-2.804 2.496-3.932-.714-2.963-1.692-6.372-3.75-8.401-5.621-5.545-11.853-10.47-18.18-16.109-.644-.415-1.287-.83-2.432-1.704-11.738-5.886-23.477-11.772-35.9-17.964-3.223-1.31-6.506-2.495-9.654-3.968-2.987-1.398-3.604-3.605-1.718-6.495 2.78-4.26 6.138-7.19 11.693-7.135 3.802.037 7.611-.745 11.417-1.16l.286-1.906c-2.251-1.047-4.43-2.777-6.765-3.022-9.57-1.003-19.192-1.514-28.787-2.29-4.008-.325-5.028 1.444-4.991 5.293.084 8.796-.159 17.608-.639 26.393-.398 7.291-1.397 14.549-1.95 21.835-.099 1.312.492 3.722 1.089 3.83 1.404.254 3.2-.268 4.462-1.068.983-.624 1.695-2.06 2.024-3.271 2.705-9.96 4.987-11.085 14.798-8.065 2.565.79 5.56.183 9.03.035.502-.648 1.092-1.246 1.49-1.951 4.098-7.25 4.576-7.673 12.689-4.965 6.941 2.316 13.655 5.316 20.73 8.511.8.5 1.6 1 2.702 2.104m-420.1-175.886c2.125 8.915 5.461 17.063 14.413 22.476 5.682 1.967 11.365 3.933 17.318 6.792l1.15 1.752c.25-.928.5-1.856 1.017-3.452 1.176-.829 2.295-1.754 3.536-2.47 5.735-3.31 11.948-5.977 17.18-9.943 18.419-13.96 27.287-32.797 27.13-56.71-1.632-8.947-3.224-17.912-11.018-24.889-6.53-5.155-13.812-8.11-22.224-6.631-20.125 3.537-33.177 15.762-40.982 34.126-.706 1.662-.544 3.693-.815 5.78 3.427-1.465 6.274-2.688 9.125-3.9 2.738-1.164 5.793-1.881 8.153-3.571 4.261-3.052 8.395-5.43 13.987-2.349l3.533 8.047-9.085 1.302-.042.576 10.832 2.133-.154 2.057-10.04 1.751 9.724 4.736c.714 2.224 1.33 4.14 1.995 6.812 1.946 9.803-2.548 18.068-10.968 20.285 1.467 1.94 3.118 3.805 4.34 5.918.423.729.091 2.318-.485 3.054-.387.496-2.026.57-2.725.17-2.83-1.622-5.512-3.5-7.901-5.059.62-1.517 1.241-3.038 2.05-5.39l-1.058-7.617c-2.6 5.62-2.986 5.59-7.378 1.85-1.83-1.559-4.402-2.248-6.16-3.102 0-2.766 0-5.52.136-9.014-.163-4.2-2.02-7.748-5.94-8.943-3.775-1.15-5.024-2.921-4.208-6.797-1.147 1.59-2.083 3.123-2.5 4.786-.678 2.706-.52 5.713-1.601 8.21-2.407 5.55-2.066 10.943-.335 17.224m-8.944 44.923-10.785-25.86c-4.454 3.976-2.828 7.324-.913 10.113 4.601 6.703 6.645 14.045 6.473 22.918-1.843 9.824-.556 19.124 4.226 28.002 1.46 2.711 2.875 5.835 2.978 8.815.268 7.822 6.027 10.72 11.029 14.658 3.892-12.438 7.61-24.303 11.317-36.172 1.9-6.086-.358-8.869-6.758-8.36-4.673.371-8.79-.553-11.575-4.798-1.908-2.909-3.912-5.754-5.992-9.316M424.164 396.72c1.778 4.011 4.289 7.873 5.146 12.073 1.072 5.254.785 10.786.846 17.083-.313 3.808-.622 7.618-.942 11.426-.663 7.898-1.333 15.795-2.055 24.427 2.087 5.084 2.96 5.402 7.51 2.498 1.679-1.071 3.394-2.173 4.811-3.55 15.267-14.843 30.643-29.579 45.64-44.691 8.772-8.84 14.215-19.81 15.874-32.134 1.903-14.135 3.516-28.368 4.105-42.606.92-22.266-4.212-43.981-7.738-65.794-1.822-11.264-4.765-22.346-7.207-34.29-3.664-8.862-5.885-18.758-11.323-26.35-8.764-12.236-19.604-22.992-29.673-34.28-2.254-2.526-4.942-4.665-7.43-6.982l-2.026.692c.543 5.961 1.085 11.923 1.666 18.716 2.866 16.43 12.353 29.404 21.838 42.466 7.698 10.6 15.782 21.067 22.157 32.454 14.03 25.058 15.282 51.349 4.264 78.622-3.18 4.437-5.695 9.665-9.748 13.058-3.214 2.692-4.126 5.167-3.946 8.78.954 19.15-9.06 33.681-20.472 47.4-4.848 5.827-8.052 5.212-12.382-1.645-2.305-13.635-.677-27.132 1.382-40.621.436-2.86.668-5.75 1.138-9.897-4.044 1.762-6.854 2.987-10.518 4.279-5.121.364-10.263 1.197-15.358.976-6.773-.293-13.023-2.435-17.704-7.855-2.232-2.584-2.536-5.167-.935-8.224 3.549-6.777 9.746-9.539 16.685-9.729 7.96-.217 15.956.868 23.835 1.38-8.672-11.064-29.03-11.345-39.87-.43-12.073 12.156-11.354 25.48 1.958 36.04 6.754 5.359 13.528 10.692 20.472 16.708M307.918 358.17c2.82.101 5.647.397 8.456.27 17.837-.8 32.673-6.794 39.083-25.01 2.263-6.433 2.543-13.564 4.087-21.08-.49-5.457-.981-10.915-1.371-17.197-1.477-5.382-2.953-10.764-4.495-16.85-4.613-7.418-9.226-14.835-14.095-22.863-12.45-11.688-26.814-14.13-41.802-6.538-7.201 3.648-13.63 9.505-19.236 15.464-10.101 10.737-17.052 23.316-17.669 39.551.055 4.316-.21 8.665.227 12.942 1.113 10.886 6.083 19.464 16.617 25.308 2.744.282 5.719 1.397 8.193.71 15.188-4.22 27.54-13.037 38.39-24.251-2.187-2.862-4.663-5.117-5.883-7.92-1.996-4.585-4.127-9.46-4.465-14.334-.442-6.385 4.017-11.487 9.322-10.834 3.676.452 7.021 3.602 10.742 6.288.704 3.726 1.409 7.452 1.925 11.995-.58 7.3-3.228 13.835-7.484 19.722-7.082 9.798-16.807 16.263-28.21 21.537l-19.54 6.628c8.29 5.315 17.225 6.084 27.208 6.462m-92.959-67.407c2.592 4.782 5.184 9.564 7.939 15.04 3.347 4.74 6.695 9.48 10.231 14.873 9.207 11.822 20.893 20.335 34.636 26.205-1.217-2.488-3.007-4.368-4.577-6.416-2.21-2.881-4.69-5.67-6.298-8.877-8.462-16.88-4.672-33.543 2.067-49.697 4.952-11.872 12.669-22.105 22.892-31.01C294.9 239.68 309.934 236.553 326.537 240c9.717 2.017 16.729 8.44 23.814 14.763 5.106 4.558 15.777 5.207 20.877.66 7.17-6.391 15.198-12.46 15.974-24.245.204-4.058.407-8.116.794-13.025.547-3.653 1.093-7.307 1.972-11.54 2.766-3.164 5.531-6.327 9.009-9.613 2.325-.874 4.609-2.347 6.984-2.513 7.933-.554 15.903-.572 23.85-.968 1.475-.074 2.91-.951 4.801-2.131.417-3.108.89-6.209 1.237-9.324.563-5.041.382-10.02-3.186-14.05-3.374-3.813-7.027-7.38-10.825-11.674-1.19-1.164-2.368-2.341-3.574-3.49-29.624-28.204-64.555-39.902-105.224-33.965-21.273 3.106-40.545 11.27-58.769 22.397-9.453 5.772-9.589 5.55-8.389 17.585-1.872 9.382-3.745 18.765-5.964 28.792-.675 1.516-1.294 3.06-2.036 4.543-7.971 15.94-19.158 28.777-35.82 35.967-5.008 2.161-6.126 5.152-4.579 10.057 1.745 5.532 3.121 11.18 4.624 17.539 2.208 6.444 4.417 12.888 6.73 20.081 2.024 4.73 4.047 9.46 6.122 14.918m241.688 1.563c4.902-5.902 9.707-5.96 12.426.951 3.209 8.155 5.096 16.927.027 25.438-.865 1.454-1.067 3.303-1.576 4.97l5.309 1.39c-1.645 1.432-2.97 3.522-4.284 3.516-2.19-.012-4.375-1.365-7.965-2.66l14.12 29.392c1.417-1.155 2.379-1.64 2.914-2.42 9.487-13.807 15.21-28.916 13.856-45.853-1.43-17.885-10.04-33.267-18.586-48.531-1.667-2.979-4.2-5.473-6.977-9.01-7.253 16.827-13.97 32.18-13.785 49.292l1.565.453c.832-2.104 1.665-4.208 2.956-6.928m26.246 158.91c.016 1.663-.433 3.532.185 4.928.573 1.296 3.117 3.128 3.363 2.932 1.711-1.365 3.522-3.013 4.288-4.967.328-.838-1.6-2.798-2.807-3.922-.891-.83-2.275-1.13-3.893-1.875l5.044-10.04c3.151 4.324 5.226 2.87 6.819-.382.871-1.778 1.843-3.646 2.088-5.561.475-3.722 1.538-6.076 6.001-6.164 1.76-.035 3.992-1.813 5.125-3.42 4.335-6.149.843-20.923-5.943-25.19-4.414 12.638-12.984 22.364-22.16 31.593-8.335 8.382-16.973 16.462-25.35 24.803-2.387 2.378-4.331 5.2-7.34 8.87 3.191.301 4.984.863 6.616.56 9.296-1.728 17.733-5.401 25-11.585.736-.627 1.787-.884 2.964-.58m-316.556-48.054-24.014-18.533c-3.758.509-7.411.905-11.028 1.517-4.259.72-8.007 2.29-9.646 6.804-1.595 4.394.357 7.745 3.194 10.8 1.015 1.092 2.082 2.2 3.315 3.013 8.833 5.827 17.901 10.601 28.672 4.826 3.958-2.122 7.813-4.433 11.888-6.757-.481-.387-1.097-.881-2.381-1.67m321.66-190.465c8.607 4.614 17.05 2.281 20.959-6.13 3.396-7.31 3.841-15.114 2.158-22.91-.606-2.807-2.323-5.374-3.533-8.05l-1.264.633c.448 2.033 1.27 4.071 1.238 6.096-.033 1.997-.352 4.508-1.577 5.853-2.08 2.283-4.857 4.011-7.54 5.649-10.13 6.184-13.89 5.584-22.337-2.837-2.498-2.49-5.42-4.556-8.147-6.816l-1.565 1.653c5.694 9.787 12.33 18.866 21.609 26.859m-390.99 63.8c-.428-6.908-2.736-10.223-7.737-11.114-4.175-.744-9.476 2.587-11.205 8.028-1.058 3.334-1.668 7.412-.69 10.61.864 2.827 3.787 5.805 6.555 7.075 3.552 1.63 7.454-.212 9.406-3.631 1.752-3.068 2.475-6.723 3.67-10.969m458.055 132.7 4.104 3.79 1.222-.903c-.584-1.121-.881-2.635-1.796-3.301-8.769-6.388-18.362-10.01-29.321-7.17-7.094 1.84-7.647 3.214-5.458 9.877 2.117 6.446 7.204 8.919 13.25 5.822 3.636-1.862 6.588-5.035 10.18-7.013 2.05-1.13 4.768-1.044 7.819-1.103m-66.94 55.03c-8.88-.888-16.92.251-22.481 8.445-2.074 3.055-1.64 5.563.508 8.115 3.994 4.745 10.36 3.045 12.518-3.752 1.302-4.103 3.677-6.65 7.49-7.963 5.645-1.945 11.016-2.06 15.778 2.525.987.95 2.999.966 4.565 1.097.373.032 1.315-1.684 1.213-1.783-1.138-1.096-2.29-2.515-3.705-2.922-4.94-1.423-9.984-2.48-15.886-3.762M412.74 351.972l-5.422 4.482c1.994 1.242 3.889 3.318 6 3.567 6.202.732 12.49.914 18.747.934 2.224.007 4.748-.61 6.587-1.794 1.566-1.006 3.022-3.17 3.193-4.95.089-.921-2.71-3.028-4.219-3.042-8.037-.077-16.079.34-24.886.803m-244.593 67.83c-.653.108-1.32.162-1.957.332-3.534.94-6.34 3.118-6 6.82.223 2.428 1.967 6.17 3.73 6.628 2.13.554 4.953-1.888 7.57-2.75 1.584-.524 3.347-.497 5.027-.745 2.016-.296 4.67.04 5.863-1.119 1.223-1.187 1.533-3.913 1.292-5.846-.255-2.035-1.904-3.855-2.467-5.9-1.056-3.835-3.569-4.916-6.704-3.203-2.215 1.211-3.798 3.58-6.354 5.783m28.583 20.36 11.447 2.55.749-1.566-17.614-21.158c-1.121 3.129-2.363 4.854-2.181 6.412.532 4.569.01 8.362-3.168 12.174-1.065 1.277.929 5.106 1.525 7.769 2.56-.957 5.186-1.776 7.632-2.965.632-.307.698-1.777 1.61-3.215M384.327 259.09c-2.266 6.714-.804 10.213 6.105 14.617 1.293-.647 2.557-1.36 3.884-1.927 4.311-1.84 6.901-6.163 6.699-11.09-.167-4.073-2.539-6.513-6.13-7.475-4.734-1.27-7.845 1.376-10.558 5.875M201.002 424.495l12.859 15.27c5.568-10.065 5.246-13.257-1.381-20.44-2.264-2.452-11.285-3.65-15.497-1.708a350.66 350.66 0 0 0 4.019 6.878m94.423 65.868c-3.485-.283-6.208-1.735-6.672-5.458-.497-3.996 2.588-5.347 5.6-6.556.457-.183 1.157-.084 1.411-.391.864-1.042 1.578-2.208 2.35-3.326-1.26-.461-2.922-1.675-3.71-1.254-3.411 1.821-6.567 4.12-10.695 6.821-.965.344-3.996.544-4.998 2.073-.746 1.14.579 4.524 1.958 5.988 3.31 3.51 7 6.77 10.995 9.446.92.617 4.095-1.131 5.425-2.548.661-.706-.505-3.126-1.664-4.795m209.491-322.09c-4.996-12.713-17.719-26.83-27.032-24.991-.565 2.346-1.218 4.458-1.537 6.619-.177 1.2-.124 2.686.47 3.644.295.478 2.056.174 3.124.017 1.231-.18 2.927-1.261 3.564-.79 5.218 3.858 12.4 4.898 15.831 11.45 1.053 2.01 3.68 3.197 5.58 4.051M476.198 533.42c1.234-4.479-.56-9.312-4.28-10.19-4.247-1-6.257 2.17-7.767 5.422-.681 1.466-1.337 3.247-1.118 4.756.32 2.2 1.236 5.964 2.258 6.087 2.569.31 5.457-.77 7.976-1.854 1.169-.502 1.777-2.306 2.93-4.221M194.886 392.232c1.112 6.24 2.05 12.524 3.538 18.674.208.858 3.412 1.865 4.743 1.403 3.322-1.153 4.128-5.754 1.68-8.545-5.35-6.102-7.666-12.952-5.836-21.023.181-.8-.047-1.693-.086-2.543l-1.143-.157c-.938 3.784-1.876 7.569-2.896 12.19m-47.438-73.639c-.512-4.043-2.233-7.021-6.812-6.943-3.673.062-6.967 3.626-7.12 7.658-.137 3.64 1.279 6.952 5.034 7.495 4.223.61 7.135-1.968 8.535-6.03.16-.464.2-.97.363-2.18m16.427 46.186-3.345-17.504c-2.723 3.556-4.375 5.931-6.25 8.115-3.194 3.719-3.114 7.639.112 11.139 3.636 3.944 6.358 1.971 9.483-1.75m-55.91 1.438c.164-1.895 1.16-4.854.34-5.496-3.055-2.394-6.706-4.028-10.51-6.158l-5.144 7.571c2.21 1.814 3.97 3.031 5.457 4.52 4.622 4.622 4.582 4.662 9.858-.437m-21.99-37.633c4.002 3.338 6.485.314 8.535-2.418 2.58-3.438 1.635-8.732-1.748-10.448-1.42-.72-3.703-1.035-5.042-.39-5.014 2.418-5.955 8.452-1.745 13.256m242.578-33.532c-1.872-.96-4.32-3.136-5.475-2.587-1.574.748-2.864 3.512-3.036 5.518-.453 5.265 2.11 9.276 6.387 12.602 5.04-4.682 4.423-9.671 2.124-15.533m128.272 11.411-4.203 2.03 5.122 9.418c8.271-7.781 9.807-15.121 4.59-20.407-1.643 2.926-3.24 5.77-5.509 8.96m132.927 162.892c-1.39 1.495-3.42 2.768-4.036 4.533-1.19 3.416-1.146 7.485 2.58 9.17 3.592 1.625 5.699-1.781 7.46-4.364 2.513-3.68.48-7.182-6.004-9.34M177.15 229.665c-2.477-.682-4.793-.384-3.957 2.787 1.16 4.401 3.058 8.608 4.64 12.899l1.81-.217 4.316-14.112c-2.54-.514-4.288-.868-6.81-1.357m-78.615 12.45c-1.924-2.236-4.114-2.833-6.429-.707-2.641 2.425-4.296 5.634-2.169 8.791.999 1.482 4.243 2.531 6.108 2.123 3.85-.843 3.877-4.363 3.437-7.643-.087-.648-.373-1.269-.947-2.564m55.593 98.183 4.647 2.426c1.449-10.262-3.023-14.2-12.503-11.072 2.555 2.866 4.937 5.536 7.856 8.646m227.553-45.66c.683 1.806 1.054 3.827 2.121 5.366 1.655 2.388 4.415 3.175 6.224.677 1.112-1.536 1.33-4.518.63-6.345-.713-1.86-2.846-3.714-4.756-4.33-.842-.273-2.674 2.52-4.22 4.633m35.658 195.487c-.785.828-2.07 1.561-2.25 2.505-.356 1.86-.78 5.041.047 5.508 1.638.924 4.412 1.026 6.132.22 1.25-.586 2.62-3.851 2.062-4.729-1.074-1.688-3.477-2.53-5.99-3.504m113.322-68.3c-1.743-.398-3.5-1.148-5.223-1.074-1.243.053-2.438 1.203-3.655 1.863.81 1.282 1.343 3.255 2.484 3.714 3.325 1.338 6.907 2.179 10.41-1.243-1.213-1.07-2.273-2.006-4.016-3.26M137.14 340.467c.436-.5 1.222-.984 1.245-1.501.087-1.964.126-3.987-.326-5.865-.081-.339-3.312-.657-3.794-.014-1.156 1.545-2.099 3.698-1.991 5.54.048.834 2.794 1.512 4.866 1.84m43.785 60.9c-1.526-1.936-2.841-2.358-3.565.566-1.023 4.133 2.138 7.554 8.281 8.078-1.584-2.96-2.936-5.487-4.716-8.643m401.042-61.78c-.774-1.776-1.261-3.791-2.453-5.218-.536-.642-2.48-.108-3.785-.108.169 2.152-.336 4.723.677 6.35 1.279 2.055 3.768 2.91 5.561-1.024M273.252 547.503l-1.087-.583c-.074.148-.199.29-.213.444-.359 3.755 4.146 10.272 9.97 12.936-1.416-2.68-2.07-4.315-3.064-5.706-1.618-2.263-3.46-4.367-5.606-7.09m-32.624-111.169 2.36-5.7c-.975-.298-2.472-1.144-2.834-.8-1.575 1.502-2.821 3.35-4.187 5.073 1.331.583 2.662 1.166 4.66 1.427m-26.755 26.362-22.157 5.57.553 2.044c7.41-1.894 14.825-3.769 22.208-5.761.27-.073.225-1.308-.604-1.853m347.242-24-3.974-3.397c-.777 1.273-2.335 2.688-2.137 3.785.263 1.451 1.9 2.654 2.947 3.963 1.068-1.176 2.136-2.352 3.164-4.35M397.847 297.233c.112 1.842.112 3.705.456 5.503.053.277 2.162.671 2.503.286 1.004-1.13 2.258-2.646 2.215-3.973-.096-2.973-1.883-4.004-5.174-1.816m8.165 217.442c1.431-.827 3.261-1.37 4.133-2.595.473-.664-.347-2.872-1.23-3.656-.569-.505-3.22.067-3.358.58-.431 1.611-.115 3.423.455 5.671M139.906 199.733l2.282 4.057c1.204-.683 3.052-1.119 3.434-2.116.385-1.005-.44-3.488-1.173-3.683-1.277-.34-2.89.577-4.543 1.742M222.9 516.612c1.133-.455 2.676-.613 3.277-1.45.556-.774.555-2.66-.031-3.345-.597-.697-2.208-.525-3.376-.733-.153 1.714-.306 3.43.13 5.528m49.177-41.246c.579-1.318 1.552-2.635 1.555-3.955.001-.583-2.046-1.74-3.009-1.597-.949.14-2.564 2.095-2.395 2.386.77 1.324 2.066 2.342 3.85 3.166m190.277-321.439-.16 2.928 6.775-1.247-.165-2.176c-1.983 0-3.966 0-6.45.495m55.885 258.507-4.853.629 1.25 3.863c1.376-1.322 2.75-2.643 3.603-4.492m-79.953 120.494-.416 4.939c.91-.05 2.36.227 2.63-.214.787-1.295 1.105-2.876 1.607-4.344-1.074-.28-2.148-.558-3.82-.381m-48.615 14.91 4.16-3.676c-1.271-.432-2.747-1.5-3.773-1.169-2.266.731-3.046 2.44-.387 4.845m174.516-233.614c-1.278-.76-2.496-1.68-3.865-2.2-.542-.207-1.691.278-2.074.805-.403.556-.513 2.106-.249 2.241 2.227 1.143 4.638 3.318 6.188-.846z"/><path fill="#F0E0E9" d="M230.31 326.086c7.346 9.238 16.54 16.247 26.571 22.676-.189 2.142-.636 3.81-.302 5.303 5.534 24.728 20.672 42.303 42.924 52.899 29.09 13.853 57.523 10.698 83.637-8.273 5.709-4.147 9.928-10.344 14.833-15.597 6.11 4.341 12.22 8.682 18.175 13.474-3.94 4.397-7.58 8.494-11.532 12.266-18.978 18.12-41.877 27.193-67.871 28.054-18.2.603-35.54-3.787-51.486-12.612-4.568-2.529-8.197-6.757-12.256-10.205l10.312-2.556c-2.582-4.11-6.162-6.121-10.876-6.552-5.641-.516-11.066-1.116-14.229-7.26-.758-1.47-4.859-1.22-8.115-1.8-1.196-.447-1.912-.75-2.169-1.277-4.915-10.1-10.886-19.861-14.358-30.441-4-12.184-6.786-25.017-3.259-38.1z"/><path fill="#E5C9D8" d="M202.141 255.004c-1.537-5.598-2.913-11.247-4.658-16.779-1.547-4.905-.43-7.896 4.58-10.057 16.661-7.19 27.848-20.027 35.82-35.967.741-1.482 1.36-3.027 2.578-4.868 1.918-.815 3.354-1.179 4.658-1.815 8.514-4.151 16.75-9 25.54-12.433 26.403-10.31 53.744-14.313 82.093-11.177 15.805 1.749 31.265 4.91 45.699 11.48 12.211 5.558 23.839 12.4 35.725 18.672-1.454.507-2.89 1.384-4.366 1.458-7.946.396-15.916.414-23.849.968-2.375.166-4.659 1.639-7.635 2.373-2.583-1.398-4.375-3.003-6.472-3.857-15.337-6.25-31.364-9.948-47.834-10.867-16.273-.908-32.41.65-48.31 4.834-25.809 6.793-48.36 19.308-67.098 38.17-8.009 8.062-14.59 17.535-21.933 26.272-1.216 1.447-3.01 2.408-4.538 3.593z"/><path fill="#E1C1D2" d="M434.394 191.724c-12.104-5.937-23.732-12.778-35.943-18.336-14.434-6.57-29.894-9.731-45.7-11.48-28.348-3.136-55.689.867-82.091 11.177-8.791 3.433-17.027 8.282-25.541 12.433-1.304.636-2.74 1-4.485 1.492 1.503-9.38 3.376-18.762 5.723-28.579 1.909-.79 3.39-1.015 4.768-1.52 10.405-3.813 20.598-8.35 31.22-11.393 21.957-6.288 44.322-8.853 67.296-6.694 21.004 1.974 41.187 6.535 60.628 14.679 3.767 1.578 7.882 2.325 11.837 3.455 3.53 3.675 7.183 7.242 10.557 11.054 3.568 4.031 3.749 9.01 3.186 14.051-.347 3.115-.82 6.216-1.455 9.66z"/><path fill="#ECD9E4" d="M272.558 414.02c4.504 3.5 8.133 7.727 12.701 10.256 15.947 8.825 33.287 13.215 51.486 12.612 25.994-.86 48.893-9.935 67.871-28.054 3.951-3.772 7.592-7.869 11.725-11.974 6.308 6.147 8.916 13.86 9.343 22.732-1.832 1.233-3.476 1.785-4.58 2.88-15.312 15.198-33.46 25.377-54.218 31.072-20.402 5.597-40.864 6.188-61.372.769-7.193-1.9-14.28-4.2-21.416-6.317-.468-.68-.936-1.36-2.08-2.071-1.457-.985-2.237-1.94-2.687-3.05 2.35-.809 4.37-1.464 7.29-2.413l-7.59-3.382 1.843-5.569-7.853 1.788c.614-.556 1.362-1.022 1.813-1.688.857-1.265 1.644-2.605 2.2-4.016.091-.23-1.311-1.53-1.74-1.401-1.641.495-3.311 1.176-4.68 2.182-.815.6-1.09 1.935-1.684 3.09-7.035-5.874-15.457-2.25-23.481-4.47-1.914-2.601-3.414-4.676-4.774-6.84-2.027-3.223-3.955-6.508-5.924-9.767 4.052-1.2 8.062-2.586 12.174-3.521 2.161-.492 4.472-.312 2.93 3.206-1.274 2.908.676 4.144 3.067 4.172 6.395.078 12.794-.163 19.636-.226z"/><path fill="#F4E8EE" d="M397.805 382.801c-4.737 5.546-8.956 11.743-14.665 15.89-26.114 18.97-54.548 22.126-83.637 8.273-22.252-10.596-37.39-28.171-42.924-52.899-.334-1.493.113-3.16.5-5.015a449.134 449.134 0 0 1 29.783 12.667c.432 2.119.394 4.089 1.309 5.387 10.046 14.265 24.129 22.426 41.225 23.687 24.323 1.794 42.965-8.37 55.19-29.8.905-1.59 2.69-2.677 4.068-3.997.324 4.62-.265 9.563 1.226 13.77 1.521 4.291 5.086 7.86 7.925 12.037z"/><path fill="#EDDCE5" d="M386.935 232.001c-.509 10.962-8.537 17.03-15.707 23.422-5.1 4.546-15.771 3.897-20.877-.66-7.085-6.324-14.097-12.747-23.814-14.764-16.603-3.446-31.637-.32-45.393 10.972-6.558 3.977-13.378 6.951-18.082 11.926-13.888 14.687-23.878 31.755-27.612 52.016-.331 1.797-1.65 3.412-2.51 5.111-3.347-4.74-6.695-9.481-9.795-14.745 1.163-2.433 2.366-4.26 2.95-6.266 4.904-16.86 14.299-31.08 26.169-43.671 14.358-15.229 31.916-25.508 52.107-30.874 19.716-5.24 39.61-6.184 59.4-.037 7.756 2.41 15.444 5.04 23.164 7.57z"/><path fill="#E2C6D5" d="M490.11 346.007c10.535-26.781 9.283-53.072-4.747-78.13-6.375-11.387-14.459-21.853-22.157-32.454-9.485-13.062-18.972-26.037-21.466-42.876 4.862 2.905 9.708 5.837 13.776 9.609 11.723 10.87 22.151 22.892 30.688 36.491.867 1.381 2.616 2.209 3.955 3.293 2.437 11.165 5.38 22.247 7.202 33.511 3.526 21.813 8.659 43.528 7.738 65.794-.59 14.238-2.202 28.471-4.105 42.606-1.66 12.324-7.102 23.294-15.875 32.134-14.996 15.112-30.372 29.848-45.639 44.69-1.417 1.378-3.132 2.48-4.81 3.55-4.551 2.905-5.424 2.587-7.132-2.878 2.371-1.507 4.7-2.282 6.296-3.819 7.395-7.118 15.079-14.024 21.76-21.78 21.21-24.626 32.58-53.594 36.242-85.706.144-1.263-1.119-2.686-1.726-4.035z"/><path fill="#E9D2DE" d="M284.039 448.369c7.194 1.744 14.282 4.043 21.475 5.944 20.508 5.42 40.97 4.828 61.372-.77 20.758-5.694 38.906-15.873 54.219-31.07 1.103-1.096 2.747-1.648 4.5-2.463a502.832 502.832 0 0 1-3.9 33.642c-2.748 1.787-5.094 3.027-7.319 4.453-31.915 20.46-66.597 27.725-104.002 21.654-2.693-.437-5.162-2.256-7.734-3.433l2.63-8.591c-3.766.838-7.644 1.749-11.544 2.548-2.005.41-4.54 1.476-5.94.677-1.383-.79-2.81-4.169-2.19-5.352 3.223-6.16 1.52-11.507-1.567-17.24m51.046 26.136 4.448.642c-3.098-3.465-5.093-5.981-7.414-8.15-.925-.864-2.551-1.148-3.898-1.274-.343-.032-1.39 1.784-1.153 2.34.593 1.384 1.519 2.842 2.72 3.693 1.42 1.006 3.27 1.406 5.297 2.75m13.493-1.6-5.316.456c.317 1.142.498 3.201.973 3.271 2.327.342 4.732.155 7.11.155l.087-1.652a25.836 25.836 0 0 0-2.854-2.23z"/><path fill="#F7F0F4" d="M388.768 356.615c-1.491 1.7-3.277 2.786-4.183 4.375-12.224 21.431-30.866 31.595-55.189 29.8-17.096-1.26-31.179-9.421-41.225-23.686-.915-1.298-.877-3.268-1.016-5.139 7.682.73 15.074 2.082 22.52 2.534 18.384 1.117 35.05-3.193 46.11-19.071 4.223-6.064 5.904-13.894 8.776-20.907 1.012-2.471 2.36-4.835 3.083-7.382.363-1.281-.333-2.862-.556-4.349 4.317-1.502 8.672.558 8.775 5.705.133 6.682 4.392 8.614 9.062 10.8 1.802.843 3.62 1.652 5.752 3.095.377 5.741.433 10.866.49 15.99-.762 2.62-1.523 5.238-2.399 8.235z"/><path fill="#E8CFDC" d="M202.124 255.384c1.544-1.565 3.34-2.526 4.555-3.973 7.343-8.737 13.924-18.21 21.933-26.272 18.737-18.862 41.29-31.377 67.098-38.17 15.9-4.185 32.037-5.742 48.31-4.834 16.47.919 32.497 4.617 47.834 10.867 2.097.854 3.889 2.459 6.117 3.918-2.472 3.365-5.237 6.528-8.607 9.94-2.36-.201-4.112-.668-5.873-1.094-12.074-2.92-24.009-7.24-36.253-8.46-28.3-2.818-55.44 2.882-80.214 16.903-22.208 12.569-39.989 30.073-52.493 52.615-1.624 2.928-3.851 5.522-5.799 8.271-2.208-6.443-4.417-12.887-6.608-19.711z"/><path fill="#DCB9CC" d="M421.972 156.649c-3.82-.821-7.936-1.568-11.703-3.146-19.44-8.144-39.624-12.705-60.628-14.679-22.974-2.159-45.339.406-67.295 6.694-10.623 3.043-20.816 7.58-31.221 11.393-1.379.505-2.86.73-4.682 1.089-1.76-11.168-1.625-10.947 7.828-16.719 18.224-11.126 37.496-19.29 58.769-22.397 40.67-5.937 75.6 5.761 105.224 33.966a65.993 65.993 0 0 1 3.708 3.799z"/><path fill="#EAD6E1" d="M230.195 325.8c-3.413 13.368-.626 26.201 3.373 38.385 3.472 10.58 9.443 20.342 14.358 30.441.257.527.973.83 1.813 1.321-2.552 2.76-5.44 5.437-8.263 8.053-5.403-2.877-10.757-5.484-9.724-14-2.243 1.556-3.259 2.632-4.496 3.045-2.784.93-6.276 2.842-8.358 1.893-2.065-.94-3.548-4.804-3.877-7.554-.63-5.255-9.366-12.79-13.66-11.704-1.422-2.885-2.777-5.635-3.432-8.473 4.47 7.45 13.945 7.038 18.935 12.92.224.262 1.348-.24 2.185-.413-3.195-4.934-2.242-9.669-.883-14.578.375-1.354-.748-3.123-1.184-4.702-1.272.447-2.659.705-3.786 1.39-1.39.843-2.565 2.042-3.832 3.087l-1.43-.448c4.934-4.908 3.704-8.882-.45-12.925-2.592-2.521-4.969-2.809-8.25-1.506-.963-3.978-2.39-7.75-2.09-11.378 1.046-12.642 2.3-25.296 4.303-37.814.771-4.822 3.757-9.29 5.734-13.92a14363.53 14363.53 0 0 1 23.014 38.88z"/><path fill="#E4C9D8" d="M302.423 476.6c2.8.903 5.268 2.722 7.96 3.16 37.406 6.07 72.088-1.195 104.003-21.655 2.225-1.426 4.57-2.666 7.203-4.05.028 4.404-.078 8.899-.773 13.301-.143.911-2.623 2.256-3.765 2.038-2.278-.435-4.376-1.815-6.548-2.804-.563 2.84-1.127 5.682-1.892 8.933-.201.41-.466.434-.851.349-2.024.077-3.936.859-5.247.279-3.198-1.416-5.462-.629-7.825 1.914-1.094 1.293-1.87 2.52-2.645 3.746-2.85 2.94-6.734 5.45-8.192 8.967-1.002 2.416 1.363 6.229 1.887 9.855-17.316 6.006-34.918 7.474-52.608 8.36l-1.104-10.457c-4.697.187-9.739 2.504-12.78-4.162-2.267 5.282-4.15 9.673-6.678 14.33-7.511-1.14-14.378-2.547-21.244-3.955l18.77-18.737c-5.703-3.599-11.533 3.88-15.486-2.523 2.376-2.071 4.982-4.343 7.815-6.889z"/><path fill="#ECD7E2" d="M387.068 231.59c-7.853-2.119-15.541-4.75-23.298-7.16-19.788-6.146-39.683-5.202-59.4.038-20.19 5.366-37.748 15.645-52.106 30.874-11.87 12.59-21.265 26.812-26.169 43.671-.584 2.007-1.787 3.833-3.032 5.92-2.92-4.606-5.512-9.388-7.819-14.7 1.142-1.711 2.113-2.826 2.836-4.082 5.123-8.899 9.578-18.253 15.402-26.66 15.088-21.781 36.06-35.916 60.93-44.434 14.236-4.876 28.86-6.625 43.98-6.248 13.483.335 26.345 2.76 38.984 7.127 3.424 1.183 6.955 2.054 10.437 3.068-.204 4.057-.407 8.115-.745 12.585z"/><path fill="#EAD3DF" d="M387.904 218.578a64.139 64.139 0 0 1-10.528-2.642c-12.639-4.367-25.501-6.792-38.985-7.127-15.119-.377-29.743 1.372-43.98 6.248-24.87 8.518-45.84 22.653-60.93 44.433-5.823 8.408-10.278 17.762-15.4 26.66-.724 1.257-1.695 2.372-2.863 3.72-2.334-4.564-4.357-9.294-6.433-14.4 1.895-3.124 4.122-5.718 5.746-8.646 12.504-22.542 30.285-40.046 52.493-52.615 24.774-14.021 51.915-19.721 80.214-16.902 12.244 1.219 24.18 5.54 36.253 8.459 1.761.426 3.513.893 5.707 1.383-.109 3.696-.655 7.35-1.294 11.429z"/><path fill="#F3E8EE" d="M339.84 256.05c4.612 7.418 9.225 14.835 13.436 22.606-3.041.177-5.678-.083-8.32-.158-6.715-.189-13.596-1.302-20.114-.235-16.186 2.652-29.143 10.974-38.573 24.871-2.537.112-4.718.253-6.9.394.158 1.73.06 3.534.533 5.173.689 2.378 1.79 4.638 2.33 7.076-1.325 1.753-2.863 3.297-3.093 5.016-.929 6.944-1.455 13.942-2.13 20.92-9.823-5.39-14.793-13.968-15.906-24.854-.437-4.277-.172-8.626.206-13.479 1.868-2.517 3.257-4.532 4.746-6.47 5.013-6.527 9.33-13.801 15.238-19.39 16.294-15.414 36.268-21.839 58.547-21.47m-47.674 21.899 2.301 5.607 4.92-10.221-7.657-1.731c.153 2.649.237 4.115.436 6.345z"/><path fill="#F7F0F4" d="M286.626 303.164c9.073-13.927 22.03-22.25 38.216-24.9 6.518-1.068 13.4.045 20.113.234 2.643.075 5.28.335 8.354.51 1.91 5.381 3.387 10.763 4.444 16.512-3.018-.665-5.54-2.014-8.231-2.663-5.145-1.24-10.131-4.441-15.73-1.772-3.494-1.945-6.839-5.095-10.515-5.547-5.305-.653-9.764 4.45-9.322 10.834.338 4.874 2.469 9.75 4.465 14.335 1.22 2.802 3.696 5.057 5.883 7.919-10.85 11.214-23.202 20.03-38.39 24.25-2.474.688-5.45-.427-8.548-.937.32-7.204.845-14.202 1.774-21.146.23-1.719 1.768-3.263 3.437-4.966 7.13-1.354 8.54-6.708 4.05-12.663z"/><path fill="#E4CBD9" d="M456.417 292.634c-1.061 2.412-1.894 4.516-2.726 6.62l-1.565-.453c-.185-17.113 6.532-32.465 13.785-49.291 2.777 3.536 5.31 6.03 6.977 9.009 8.546 15.264 17.157 30.646 18.586 48.531 1.353 16.937-4.37 32.046-13.856 45.853-.535.78-1.497 1.265-2.914 2.42l-14.12-29.391c3.59 1.294 5.774 2.647 7.965 2.659 1.314.006 2.639-2.084 4.284-3.515l-5.309-1.391c.509-1.667.71-3.516 1.576-4.97 5.069-8.51 3.182-17.283-.027-25.438-2.719-6.911-7.524-6.853-12.656-.643z"/><path fill="#EAD7E1" d="M447.252 393.992c1.423-10.69 3.665-21.35 4.05-32.077.42-11.764-2.717-22.753-14.24-28.974-4.911-2.652-9.73-4.975-6.123-12.944-3.25 1.296-5.212 2.078-7.566 2.444-.434-1.3-.477-2.184-.52-3.068l6.168-4.019-1.319-1.195c.75-2.738 1.934-5.138 1.98-7.56.252-13.166.447-26.324 5.244-38.844 1.713-4.472 3.836-8.786 6.34-13.448 1.908.937 3.294 2.102 4.575 3.373 2.088 2.07 4.108 4.21 6.157 6.32-1.786 11.926-4.152 23.8-5.196 35.79-1.093 12.548 3.007 24.19 8.924 35.182 2.826 5.248 5.563 10.544 8.315 16.57-.714 3.622-1.19 6.565-2.13 9.352-3.417 10.12-6.89 20.226-10.627 30.23-.478 1.28-2.646 1.928-4.032 2.868z"/><path fill="#E7CDDB" d="M207.147 286.542c-1.943 5.007-4.929 9.476-5.7 14.298-2.002 12.518-3.257 25.172-4.303 37.814-.3 3.628 1.127 7.4 1.823 11.639-6.486 3.357-6.486 3.357-4.882 10.732-.229.177-.638.528-.66.507-4.048-4.22-8.178-8.372-12.019-12.776-.987-1.132-1.28-3.027-1.513-4.626-.45-3.087-1.98-4.836-5.526-5.54-.041-7.146.144-13.76.637-20.35 1.555-20.782 7.81-40.18 17.697-58.435.847-1.564 2.767-2.547 4.19-3.8 3.407 10.054 6.815 20.106 10.256 30.537z"/><path fill="#DFC0D1" d="M188.571 227.143c-5.682-1.967-11.365-3.933-17.236-6.474 4.18-6.766 7.576-13.804 14.633-17.667l-1.863 4.558c2.39 1.558 5.071 3.437 7.9 5.058.7.4 2.339.327 2.726-.169.576-.736.908-2.325.486-3.054-1.223-2.113-2.874-3.978-4.34-5.918 8.419-2.217 12.913-10.482 11.104-20.988 2.057-2.295 3.977-3.888 6.195-5.202 5.855 2.132 3.7-1.941 4.112-4.425 2.52-1.617 4.63-3.263 6.95-4.528 6.468-3.526 13.023-6.893 19.543-10.323.231 23.114-8.637 41.952-27.056 55.911-5.232 3.966-11.445 6.633-17.18 9.943-1.24.716-2.36 1.641-4.032 2.82-.978.386-1.46.422-1.942.458z"/><path fill="#E7CDDB" d="M489.868 346.253c.85 1.103 2.112 2.526 1.968 3.79-3.661 32.111-15.031 61.08-36.242 85.704-6.681 7.757-14.365 14.663-21.76 21.781-1.596 1.537-3.925 2.312-6.268 3.452.315-7.884.985-15.781 1.648-23.68.32-3.807.629-7.617 1.4-11.888 2.762-2.435 5.044-4.436 7.378-6.373 1.705-1.414 3.479-2.745 5.222-4.112 4.195 6.022 7.399 6.637 12.247.81 11.412-13.719 21.426-28.25 20.472-47.4-.18-3.613.732-6.088 3.946-8.78 4.053-3.393 6.569-8.621 9.99-13.304z"/><path fill="#FBF8FA" d="M359.186 313.054c-1.186 6.812-1.466 13.943-3.73 20.376-6.409 18.216-21.245 24.21-39.082 25.01-2.81.127-5.637-.169-8.969-.732-2.475-4.517-4.437-8.573-6.4-12.63 10.648-5.272 20.373-11.737 27.455-21.535 4.256-5.887 6.905-12.421 7.965-20.115 4.984 1.144 9.599 2.421 13.95 4.307 3.12 1.351 5.887 3.517 8.81 5.319z"/><path fill="#DDBDCE" d="M538.926 371.137c-2.797-.035-5.79.572-8.356-.218-9.811-3.02-12.093-1.895-14.798 8.065-.329 1.212-1.04 2.647-2.024 3.271-1.262.8-3.058 1.322-4.462 1.068-.597-.108-1.188-2.518-1.088-3.83.552-7.286 1.551-14.544 1.95-21.835.479-8.785.722-17.597.638-26.393-.037-3.849.983-5.618 4.99-5.294 9.596.777 19.218 1.288 28.788 2.291 2.335.245 4.514 1.975 6.765 3.022l-.286 1.905c-3.806.416-7.615 1.198-11.417 1.16-5.555-.054-8.912 2.876-11.693 7.136-1.886 2.89-1.27 5.097 1.718 6.495 3.148 1.473 6.43 2.657 9.998 4.558-.012 6.593-.368 12.596-.723 18.6z"/><path fill="#DEBFD0" d="M482.757 450.87c-1.041.062-2.092.32-2.828.946-7.267 6.184-15.704 9.857-25 11.585-1.632.303-3.425-.259-6.616-.56 3.009-3.67 4.953-6.492 7.34-8.87 8.377-8.34 17.015-16.42 25.35-24.803 9.176-9.23 17.746-18.955 22.16-31.593 6.786 4.267 10.278 19.041 5.943 25.19-1.133 1.607-3.365 3.385-5.125 3.42-4.463.088-5.526 2.442-6.001 6.164-.245 1.915-1.217 3.783-2.088 5.561-1.593 3.252-3.668 4.706-6.82.382-1.817 3.62-3.348 6.667-5.043 10.04 1.618.745 3.002 1.045 3.893 1.875 1.207 1.124 3.135 3.084 2.807 3.922-.766 1.954-2.577 3.602-4.288 4.967-.246.196-2.79-1.636-3.363-2.932-.618-1.396-.169-3.265-.321-5.294z"/><path fill="#DBB7CA" d="M238.818 157.612c-6.557 3.829-13.112 7.196-19.58 10.722-2.32 1.265-4.43 2.911-7.236 4.319-1.48-.58-2.362-1.095-4.124-2.123v6.48c-1.92 1.591-3.84 3.184-5.922 5.1-.778-1.59-1.393-3.506-2.107-5.73l-9.723-4.736 10.039-1.751.154-2.057-10.832-2.133.042-.576 9.085-1.302c-1.35-3.077-2.442-5.562-3.381-8.602 9.356-10.372 21.013-16.492 32.895-22.274 7.503 6.351 9.095 15.316 10.69 24.663z"/><path fill="#ECDEE6" d="M233.035 320.35c.765-2.025 2.084-3.64 2.415-5.437 3.734-20.26 13.725-37.329 27.612-52.016 4.704-4.975 11.524-7.949 17.763-11.828-9.2 8.717-16.916 18.95-21.868 30.822-6.74 16.154-10.53 32.817-2.067 49.697 1.608 3.207 4.089 5.996 6.298 8.877 1.57 2.048 3.36 3.928 4.577 6.416-13.743-5.87-25.43-14.383-34.73-26.53z"/><path fill="#D6AFC5" d="M227.982 132.636c-11.736 6.095-23.393 12.215-32.872 22.237-5.62-2.176-9.755.202-14.016 3.254-2.36 1.69-5.415 2.407-8.153 3.571-2.851 1.212-5.698 2.435-9.125 3.9.27-2.087.109-4.118.815-5.78 7.805-18.364 20.857-30.589 40.982-34.126 8.412-1.48 15.693 1.476 22.37 6.944z"/><path fill="#ECDEE6" d="M423.985 396.048c-6.765-5.345-13.539-10.678-20.293-16.037-13.312-10.56-14.031-23.884-1.959-36.04 10.842-10.915 31.199-10.634 39.871.43-7.88-.512-15.875-1.597-23.835-1.38-6.939.19-13.136 2.952-16.685 9.729-1.6 3.057-1.297 5.64.935 8.224 4.68 5.42 10.931 7.562 17.704 7.855 5.095.22 10.237-.612 15.798-.597-.174 2.759-.444 5.298-1.468 7.486-3.203 6.848-6.69 13.563-10.068 20.33z"/><path fill="#F0E2E9" d="M339.711 255.745c-22.15-.064-42.124 6.36-58.418 21.775-5.908 5.589-10.225 12.863-15.238 19.39-1.49 1.938-2.878 3.953-4.64 6.013.078-15.24 7.029-27.82 17.13-38.557 5.606-5.959 12.035-11.816 19.236-15.464 14.988-7.593 29.352-5.15 41.93 6.843z"/><path fill="#E1C5D4" d="M196.918 255.61c-1.45 1.648-3.37 2.63-4.217 4.195-9.887 18.254-16.142 37.653-17.697 58.435-.493 6.59-.678 13.204-1.004 20.275-2.452.875-4.892 1.39-7.36 1.669-4.097.462-5.295-1.102-3.714-4.843a11.672 11.672 0 0 1 2.133-3.321c6.05-6.543 6.963-11.823 2.585-19.504-2.043-3.586-2.677-6.99-1.585-10.913 3.411-12.264 6.735-24.552 10.214-37.274l8.553 3.14c0-2.99.64-5.548-.113-7.594-2.998-8.14-1.68-15.559 2.509-22.868 1.193-2.082 1.616-4.606 3.516-7.209 2.07 8.472 4.139 16.944 6.18 25.812z"/><path fill="#DEBFD0" d="M148.285 244.379c1.962 2.873 3.966 5.718 5.874 8.627 2.786 4.245 6.902 5.17 11.575 4.798 6.4-.509 8.658 2.274 6.758 8.36-3.707 11.869-7.425 23.734-11.317 36.172-5.002-3.937-10.76-6.836-11.03-14.658-.102-2.98-1.516-6.104-2.977-8.815-4.782-8.878-6.069-18.178-3.811-28.514 1.92-2.331 3.424-4.15 4.928-5.97m4.45 33.01-4.202-14.213-2.443.686c1.308 4.986 2.61 9.973 4.035 14.925.012.043 1.694-.395 2.61-1.399z"/><path fill="#DCB9CB" d="M166.671 403.33a28.12 28.12 0 0 1 2.047 1.522c-4.075 2.324-7.93 4.635-11.888 6.757-10.77 5.775-19.84 1.001-28.672-4.826-1.233-.813-2.3-1.921-3.315-3.013-2.837-3.055-4.79-6.406-3.194-10.8 1.64-4.513 5.387-6.084 9.646-6.804 3.617-.612 7.27-1.008 11.028-1.517 7.691 5.936 15.852 12.235 24.348 18.68z"/><path fill="#DFC0D1" d="M333.087 509.359c17.733-1.252 35.335-2.72 52.71-8.354 1.79.1 3.183.267 5.573.553.695 1.537 1.096 3.904-2.566 5.426-1.035.43-2.052 1.62-2.474 2.696-4.83 12.327-14.155 17.966-27.882 16.215-7.657-.977-15.11-3.116-20.839-8.659-2.037-1.97-3.072-4.978-4.522-7.877z"/><path fill="#ECD7E2" d="M424.075 396.383c3.288-7.102 6.775-13.817 9.978-20.665 1.024-2.188 1.294-4.727 1.895-7.52 2.797-1.637 5.607-2.862 9.651-4.624-.47 4.147-.702 7.038-1.138 9.897-2.06 13.489-3.687 26.986-1.315 41.038-1.675 1.785-3.45 3.116-5.154 4.53-2.334 1.937-4.616 3.938-7.259 5.931-.638-5.392-.35-10.924-1.423-16.178-.857-4.2-3.368-8.062-5.235-12.409z"/><path fill="#D9B5C8" d="M487.697 212.493c-8.978-7.769-15.614-16.848-21.308-26.635l1.565-1.653c2.727 2.26 5.649 4.326 8.147 6.816 8.447 8.421 12.207 9.02 22.338 2.837 2.682-1.638 5.46-3.366 7.539-5.65 1.225-1.344 1.544-3.855 1.577-5.852.033-2.025-.79-4.063-1.238-6.096.422-.21.843-.422 1.264-.633 1.21 2.676 2.927 5.243 3.533 8.05 1.683 7.796 1.238 15.6-2.158 22.91-3.909 8.411-12.352 10.744-21.26 5.906z"/><path fill="#DFC0D1" d="M490.157 241.55c-1.337-.694-3.086-1.522-3.953-2.903-8.537-13.6-18.965-25.62-30.688-36.491-4.068-3.772-8.914-6.704-13.796-10.025-.933-5.967-1.475-11.929-2.018-17.89l2.026-.692c2.488 2.317 5.176 4.456 7.43 6.983 10.069 11.287 20.91 22.043 29.673 34.279 5.438 7.592 7.659 17.488 11.326 26.74z"/><path fill="#E7D0DD" d="M447.144 394.402c1.494-1.35 3.662-1.999 4.14-3.278 3.738-10.004 7.21-20.11 10.627-30.23.94-2.787 1.416-5.73 2.184-9.02 7.62 12.221 8.732 25.271 1.788 38.418-3.48 6.588-7.694 12.808-11.878 18.99-1.084 1.603-3.304 2.438-5.002 3.625-.732-1.878-1.97-3.725-2.091-5.642-.263-4.131.048-8.3.232-12.863z"/><path fill="#DCB9CB" d="M186.061 202.586c-7.15 4.279-10.545 11.317-14.98 17.836-8.509-4.592-11.845-12.74-13.623-22.095 1.858-1.922 3.334-3.438 4.884-4.876 3.05-2.831 6.142-5.619 9.217-8.424v8.274c1.758.854 4.33 1.543 6.16 3.102 4.392 3.74 4.779 3.77 7.378-1.85.353 2.54.706 5.078.964 8.033z"/><path fill="#DEBFD0" d="M291.047 504.895c7.143 1.262 14.01 2.67 21.277 4.081-1.115 2.957-2.559 5.948-4.16 8.852-3.505 6.359-6.773 7.928-13.901 6.864-3.947-.59-7.881-1.395-11.85-1.653-3.046-.199-6.137.306-10.17-.316 6.175-5.894 12.352-11.788 18.804-17.828z"/><path fill="#272627" d="M194.066 360.991c-1.585-7.34-1.585-7.34 5.23-10.425 3.22-1.837 5.596-1.55 8.188.972 4.154 4.043 5.384 8.017.45 12.925l1.43.448c1.267-1.045 2.442-2.244 3.832-3.087 1.127-.685 2.514-.943 3.786-1.39.436 1.579 1.559 3.348 1.184 4.702-1.359 4.91-2.312 9.644.883 14.578-.837.173-1.961.675-2.185.412-4.99-5.88-14.464-5.47-18.559-13.146-.324-.14-.258-.056-.327-.332-.712-.418-1.355-.56-1.998-.702-.259-.495-.517-.99-.847-2.109-.435-1.376-.799-2.13-1.163-2.883 0 0 .077.004.096.037m15.153 4.174c-.466-.112-.928-.257-1.4-.304-.083-.009-.206.396-.31.61.396.114.793.229 1.71-.306z"/><path fill="#D0ABC2" d="M96.998 276.941c-1.186 3.82-1.909 7.476-3.66 10.544-1.953 3.42-5.855 5.26-9.407 3.63-2.768-1.27-5.691-4.247-6.555-7.074-.978-3.198-.368-7.276.69-10.61 1.729-5.44 7.03-8.772 11.205-8.028 5.001.891 7.309 4.206 7.727 11.538z"/><path fill="#D6B3C5" d="M554.745 409.014c-2.734.26-5.453.174-7.502 1.304-3.592 1.978-6.544 5.151-10.18 7.013-6.046 3.097-11.133.624-13.25-5.822-2.19-6.663-1.636-8.037 5.458-9.876 10.959-2.841 20.552.78 29.321 7.169.915.666 1.212 2.18 1.796 3.3l-1.222.904a187.285 187.285 0 0 0-4.421-3.992z"/><path fill="#DABECD" d="M392.085 482.202c.733-1.617 1.509-2.844 2.985-4.089 6.01-2.278 9.223 1.41 12.684 5.424l.39-7.58s.266-.024.397-.004c.858 7.884 2.054 15.783-3.322 22.783-.645.84-.108 2.532-.272 3.81-.368 2.855-.457 5.786-4.94 4.917-1.38-.268-3.104 1.237-4.501 1.855-.153-2.083-.187-4.234-.493-6.345-.461-3.184 1.601-4.03 3.874-3.634 4.205.734 4.78-2.245 6.073-5.382-4.84 3.567-8.997 4.055-13.042-.775-3.207-3.829-1.32-7.097.167-10.98z"/><path fill="#E4CDD9" d="M452.253 263.759c-2.304-1.869-4.324-4.009-6.412-6.08-1.28-1.27-2.667-2.435-4.366-3.66.658-8.334 6.2-14.632 10.02-23.122 3.271 3.982 6.45 7.413 9.015 11.253.734 1.099.052 3.54-.608 5.1-2.317 5.484-4.907 10.854-7.65 16.509z"/><path fill="#D9B5C8" d="M488.57 464.288c5.454 1.239 10.498 2.296 15.438 3.719 1.414.407 2.567 1.826 3.705 2.922.102.099-.84 1.815-1.213 1.783-1.566-.131-3.578-.146-4.565-1.097-4.762-4.586-10.133-4.47-15.779-2.525-3.812 1.314-6.187 3.86-7.489 7.963-2.157 6.797-8.524 8.497-12.518 3.752-2.148-2.552-2.582-5.06-.508-8.115 5.561-8.194 13.6-9.333 22.93-8.402z"/><path fill="#E2C6D5" d="M259.07 462.994c1.13 1.323 2.4 2.554 3.35 3.996 1.07 1.624 1.85 3.439 3.136 5.893-1.728 0-2.558.207-3.195-.055-.705-.289-1.234-1.006-2.387-2.018l-2.403 6.12c-4.462-.426-10.496 4.513-15.286-2.124-2.441-3.382-3.326-6.925-.985-10.622 2.528-3.993 5.253-7.912 11.43-5.857 2.37 1.856 4.355 3.261 6.34 4.667z"/><path fill="#F7F0F4" d="M359.365 312.702c-3.103-1.45-5.87-3.616-8.99-4.967-4.351-1.886-8.966-3.163-13.856-4.715-1.091-3.742-1.796-7.468-2.614-11.564 5.486-3.04 10.472.161 15.617 1.401 2.69.649 5.213 1.998 8.18 3.076.86 5.502 1.351 10.96 1.663 16.769z"/><path fill="#EADBE3" d="M413.123 351.863c8.424-.355 16.466-.77 24.503-.694 1.51.014 4.308 2.12 4.22 3.042-.172 1.78-1.628 3.944-3.194 4.95-1.84 1.183-4.363 1.801-6.587 1.794-6.256-.02-12.545-.202-18.748-.934-2.11-.25-4.005-2.325-5.999-3.567 1.808-1.494 3.615-2.988 5.805-4.591z"/><path fill="#DDBDCE" d="M168.492 419.627c2.21-2.027 3.794-4.397 6.01-5.608 3.134-1.713 5.647-.632 6.703 3.203.563 2.045 2.212 3.865 2.467 5.9.241 1.933-.069 4.66-1.292 5.846-1.194 1.158-3.847.823-5.863 1.12-1.68.247-3.443.22-5.028.743-2.616.863-5.438 3.305-7.569 2.751-1.763-.458-3.507-4.2-3.73-6.628-.34-3.702 2.466-5.88 6-6.82.637-.17 1.304-.224 2.302-.507z"/><path fill="#DFC0D1" d="M196.437 440.414c-.62 1.187-.685 2.657-1.317 2.964-2.446 1.19-5.073 2.008-7.632 2.965-.596-2.663-2.59-6.492-1.525-7.769 3.179-3.812 3.7-7.605 3.168-12.174-.182-1.558 1.06-3.283 2.181-6.412l17.614 21.158-.75 1.565c-3.815-.85-7.63-1.699-11.74-2.297z"/><path fill="#EADBE3" d="M384.535 258.77c2.505-4.18 5.616-6.825 10.35-5.555 3.591.962 5.963 3.402 6.13 7.476.202 4.926-2.388 9.25-6.7 11.089-1.326.566-2.59 1.28-3.88 1.934-6.912-4.411-8.374-7.91-5.9-14.944z"/><path fill="#E1C5D4" d="M200.796 424.202a612.84 612.84 0 0 1-3.813-6.585c4.212-1.942 13.233-.744 15.497 1.709 6.627 7.182 6.949 10.374 1.38 20.439-4.456-5.292-8.657-10.281-13.064-15.563z"/><path fill="#E9D2DE" d="M259.275 462.637c-2.19-1.049-4.175-2.454-6.214-4.186 3.093-.012 3.963-1.465 4.17-4.54.139-2.09 1.821-4.075 3.425-6.428 3.897-1.333 7.785-1.58 10.313-3.56 2.916-2.285 5.2-2.015 8.032-.894.78.955 1.56 1.91 2.671 2.92-2.38 2.157-5.09 4.261-7.802 6.365l.639.265c-1.402 2.432-2.586 5.044-4.343 7.183-.505.614-3.637.274-3.894-.335-.864-2.042-.972-4.402-1.555-7.684l-2.057-.645c-1.17 4.116-2.176 7.65-3.385 11.54z"/><path fill="#D6AFC5" d="M171.627 184.657c-3.143 3.175-6.234 5.963-9.285 8.794-1.55 1.438-3.026 2.954-4.868 4.495-2.094-5.46-2.435-10.853-.028-16.404 1.081-2.496.923-5.503 1.601-8.21.417-1.662 1.353-3.195 2.5-4.785-.816 3.876.433 5.646 4.207 6.797 3.92 1.195 5.778 4.743 5.873 9.313z"/><path fill="#DEBFD0" d="M295.835 490.376c.749 1.656 1.915 4.076 1.254 4.782-1.33 1.417-4.505 3.165-5.425 2.548-3.995-2.676-7.685-5.936-10.995-9.446-1.38-1.464-2.704-4.849-1.958-5.988 1.002-1.529 4.033-1.729 4.998-2.073 4.128-2.7 7.284-5 10.694-6.82.789-.422 2.45.792 3.71 1.253-.77 1.118-1.485 2.284-2.349 3.326-.254.307-.954.208-1.412.391-3.011 1.209-6.096 2.56-5.599 6.556.464 3.723 3.187 5.175 7.082 5.47z"/><path fill="#F4E8EE" d="M422.506 319.518c.39.739.433 1.623.48 2.95-5.442 4.05-11.189 7.283-16.252 11.366-5.335 4.302-10.016 9.414-15.275 14.36-.349-4.938-.405-10.063-.462-15.64 8.775-.255 15.809-3.985 22.326-8.865 2.946-1.342 5.891-2.684 9.183-4.171z"/><path fill="#E4CDD9" d="M234.335 410.46c2.385 3.188 4.313 6.473 6.34 9.696 1.36 2.164 2.86 4.239 4.34 6.665-3.56-.943-7.155-2.217-10.764-3.448-6.41-2.187-9.858-9.388-17.545-9.87-2.291-.144-4.538-3.434-6.448-5.597-.515-.583.279-2.321.472-3.529 1.193.277 3.17.213 3.461.881 4.411 10.153 12.122 7.437 20.144 5.202z"/><path fill="#D0ABC2" d="M504.919 168.628c-1.903-1.209-4.53-2.395-5.583-4.406-3.43-6.552-10.613-7.592-15.831-11.45-.637-.471-2.333.61-3.564.79-1.068.157-2.829.461-3.124-.017-.594-.958-.647-2.443-.47-3.644.32-2.161.972-4.273 1.537-6.619 9.313-1.838 22.036 12.278 27.035 25.346z"/><path fill="#DBB7CA" d="M539.263 371.045c.018-5.911.374-11.914.728-18.354 11.737 5.45 23.476 11.335 35.086 17.858-.362.926-.596 1.215-.83 1.503-6.813-2.698-13.527-5.698-20.468-8.014-8.113-2.708-8.59-2.285-12.689 4.965-.398.705-.988 1.303-1.827 2.042z"/><path fill="#DABECD" d="M258.357 446.729c-4.975 2.338-9.914 4.756-14.937 6.986-3.205 1.423-6.44 2.645-7.74 6.382-.146.422-1.056.735-1.652.82-4.59.653-9.192 1.237-14.436 1.502-.828-.58-1.01-.82-1.193-1.06 9.01-4.054 18.101-7.94 26.978-12.267 2.53-1.234 4.377-3.821 6.646-5.653 1.746-1.41 3.993-3.996 5.447-3.652 5.557 1.316 8.681-3.044 13.277-3.836-3.923 4.05-8.156 7.413-12.39 10.778z"/><path fill="#F2ECEF" d="M300.628 345.08c2.34 4.055 4.302 8.11 6.32 12.518-9.013.194-17.948-.575-26.238-5.89 6.514-2.21 13.027-4.419 19.918-6.628z"/><path fill="#C9A6BE" d="M577.973 372.084c5.99 5.17 12.223 10.096 17.845 15.64 2.057 2.03 3.035 5.44 3.749 8.402.272 1.128-1.432 3.779-2.496 3.932-1.513.218-3.389-1.046-4.862-2.043-.67-.454-.824-1.763-1.08-2.72-2.27-8.483-7.042-15.27-13.842-21.127.279-1.018.482-1.55.686-2.084z"/><path fill="#D0ABC2" d="M476.052 533.77c-1.008 1.565-1.616 3.37-2.785 3.871-2.52 1.083-5.407 2.165-7.976 1.854-1.022-.123-1.938-3.887-2.258-6.087-.219-1.51.437-3.29 1.118-4.756 1.51-3.252 3.52-6.422 7.767-5.421 3.72.877 5.514 5.71 4.134 10.54z"/><path fill="#E1C5D4" d="M194.926 391.813a822.676 822.676 0 0 1 2.855-11.772l1.143.157c.039.85.267 1.743.086 2.543-1.83 8.071.486 14.92 5.836 21.023 2.448 2.791 1.642 7.392-1.68 8.545-1.331.462-4.535-.545-4.743-1.403-1.489-6.15-2.426-12.433-3.497-19.093z"/><path fill="#C1A2BB" d="M79.173 384.94c-2.975-9.13-5.686-18.356-9.018-27.352-2.22-5.997-5.439-11.618-7.958-17.515-.608-1.423-.217-3.273-.285-4.926 1.829.638 4.348.752 5.324 2.038 1.416 1.866 1.83 4.547 2.478 6.933 3.516 12.938 6.972 25.893 10.351 39.452-.362.864-.627 1.117-.892 1.37z"/><path fill="#DCB9CB" d="M147.414 318.953c-.13.848-.17 1.355-.33 1.82-1.4 4.06-4.312 6.64-8.535 6.029-3.755-.543-5.171-3.855-5.034-7.495.153-4.032 3.447-7.596 7.12-7.658 4.579-.078 6.3 2.9 6.779 7.304z"/><path fill="#DABECD" d="M163.656 365.11c-2.907 3.39-5.63 5.362-9.265 1.418-3.226-3.5-3.306-7.42-.113-11.139 1.876-2.184 3.528-4.559 6.25-8.115 1.195 6.246 2.27 11.875 3.128 17.836z"/><path fill="#D0ABC2" d="M108.75 345.864c2.591 5.44 1.132 7.918-5.174 8.23l-.549-4.518c-.9.044-1.904.363-2.696.083-2.217-.783-4.948-1.305-6.306-2.916-.976-1.157-.696-4.203.117-5.874 2.029-4.17 5.637-4.19 8.642-.59 1.653 1.982 3.579 3.735 5.701 5.596.32.005.265-.011.265-.011z"/><path fill="#302F2F" d="M258.896 446.861c3.695-3.497 7.928-6.86 12.124-10.577-.037-.353-.02-.297.26-.185.78-.284 1.281-.68 2.131-1.494.093-.676-.163-.934-.42-1.191 0 0 .11-.077.07-.096 2.43-.582 4.9-1.144 7.813-1.807l-1.842 5.569 7.588 3.382c-2.92.949-4.94 1.604-7.289 2.414-3.161-.968-5.446-1.238-8.362 1.047-2.528 1.98-6.416 2.227-10.074 3.273-.734-.045-1.097-.124-1.999-.335z"/><path fill="#D6AFC5" d="M107.764 366.542c-5.075 4.773-5.035 4.733-9.657.11-1.488-1.488-3.246-2.705-5.457-4.519l5.145-7.57c3.803 2.129 7.454 3.763 10.51 6.157.819.642-.177 3.601-.54 5.822z"/><path fill="#D0ABC2" d="M85.694 328.314c-3.93-4.535-2.988-10.57 2.026-12.986 1.34-.646 3.622-.332 5.042.389 3.383 1.716 4.329 7.01 1.748 10.448-2.05 2.732-4.533 5.756-8.816 2.15z"/><path fill="#F2ECEF" d="M328.747 295.384c2.105 5.529 2.721 10.518-2.318 15.2-4.277-3.326-6.84-7.337-6.387-12.602.172-2.006 1.462-4.77 3.036-5.518 1.154-.549 3.603 1.626 5.669 2.92z"/><path fill="#D6B3C5" d="M148.226 244.034c-1.445 2.164-2.95 3.984-4.78 5.89-.332-7.936-2.376-15.278-6.977-21.98-1.915-2.79-3.54-6.138.913-10.114 3.756 9.007 7.27 17.433 10.844 26.204z"/><path fill="#E4CDD9" d="M457.16 306.29c1.934-3.016 3.531-5.861 5.175-8.787 5.216 5.286 3.68 12.626-4.591 20.407l-5.122-9.417c1.4-.677 2.802-1.354 4.539-2.203z"/><path fill="#C1A2BB" d="M590.114 469.294c6.122 2.218 8.155 5.72 5.643 9.4-1.762 2.583-3.87 5.989-7.46 4.364-3.727-1.685-3.77-5.754-2.58-9.17.614-1.765 2.645-3.038 4.397-4.594z"/><path fill="#DBB7CA" d="M177.536 229.731c2.134.422 3.882.776 6.422 1.29l-4.316 14.112-1.81.217c-1.582-4.29-3.48-8.498-4.64-12.9-.836-3.17 1.48-3.468 4.344-2.719z"/><path fill="#C9A6BE" d="M98.723 242.445c.384.964.67 1.585.757 2.233.44 3.28.414 6.8-3.437 7.643-1.865.408-5.11-.641-6.108-2.123-2.127-3.157-.472-6.366 2.17-8.791 2.314-2.126 4.504-1.53 6.618 1.038zM389.913 517.967c-6.041 8.773-7.36 19.039-8.201 29.799-5.321-3.489-5.5-5.484-3.356-9.592 3.583-6.868 6.628-14.016 10.325-21.015.694.29.963.55 1.232.808z"/><path fill="#DCB9CB" d="M153.857 340.077c-2.65-2.89-5.032-5.56-7.587-8.426 9.48-3.128 13.952.81 12.503 11.072-1.694-.884-3.17-1.655-4.916-2.646z"/><path fill="#F0E2E9" d="M381.76 294.282c1.464-1.758 3.296-4.55 4.138-4.278 1.91.617 4.043 2.47 4.755 4.33.7 1.828.483 4.81-.63 6.346-1.808 2.498-4.568 1.711-6.223-.677-1.067-1.54-1.438-3.56-2.04-5.721z"/><path fill="#D9B5C8" d="M417.667 490.015c2.183 1.084 4.586 1.926 5.66 3.614.558.878-.813 4.143-2.062 4.728-1.72.807-4.494.705-6.132-.22-.827-.466-.403-3.648-.047-5.507.18-.944 1.465-1.677 2.581-2.615z"/><path fill="#D6B3C5" d="M531 421.984c1.402 1.095 2.462 2.03 3.675 3.101-3.503 3.422-7.085 2.58-10.41 1.243-1.141-.459-1.674-2.432-2.484-3.714 1.217-.66 2.412-1.81 3.655-1.863 1.722-.074 3.48.676 5.564 1.233zM136.865 340.679c-1.797-.539-4.543-1.217-4.591-2.052-.108-1.841.835-3.994 1.991-5.539.482-.643 3.713-.325 3.794.014.452 1.878.413 3.9.326 5.865-.023.517-.809 1.001-1.52 1.712z"/><path fill="#DBB7CA" d="M181.139 401.684c1.566 2.84 2.918 5.368 4.502 8.328-6.143-.524-9.304-3.945-8.281-8.078.724-2.924 2.039-2.502 3.779-.25z"/><path fill="#C9A6BE" d="M581.92 339.987c-1.746 3.537-4.235 2.681-5.514.626-1.013-1.627-.508-4.198-.677-6.35 1.305 0 3.249-.534 3.785.108 1.192 1.427 1.679 3.442 2.407 5.616zM273.451 547.78c1.947 2.447 3.789 4.55 5.407 6.814.994 1.391 1.648 3.026 3.064 5.706-5.824-2.664-10.329-9.181-9.97-12.936.014-.154.14-.296.213-.444.362.194.725.389 1.286.86z"/><path fill="#D0ABC2" d="M108.825 345.9c.26-.956.27-2.083.792-2.87.811-1.226 1.97-2.22 2.983-3.312.782 1.065 1.754 2.042 2.302 3.216.835 1.785 1.376 3.708 2.384 6.527-3.382-1.766-5.561-2.904-8.139-3.82-.397.223-.342.24-.322.259z"/><path fill="#C1A2BB" d="m161.901 471.558-20.531-3.937.336-1.726c6.454 1.496 12.908 2.993 19.712 4.7.306.477.35.728.483.963z"/><path fill="#E1C5D4" d="M240.294 436.496c-1.665-.422-2.996-1.005-4.327-1.588 1.366-1.723 2.612-3.57 4.187-5.073.362-.344 1.859.502 2.833.8-.786 1.9-1.573 3.8-2.693 5.861z"/><path fill="#DABECD" d="M214.338 462.623c.363.62.408 1.854.138 1.927-7.383 1.992-14.798 3.867-22.208 5.76l-.553-2.042a4421.188 4421.188 0 0 1 22.623-5.645z"/><path fill="#C9A6BE" d="M561.134 439.109c-1.048 1.587-2.116 2.763-3.184 3.94-1.047-1.31-2.684-2.513-2.947-3.964-.198-1.097 1.36-2.512 2.137-3.785 1.325 1.133 2.65 2.265 3.994 3.809z"/><path fill="#9183A1" d="M162.355 471.706c-.586-.383-.63-.634-.523-1.083 4.912-.074 9.766.229 14.604.059 2.296-.08 4.56-1.063 7.216-1.365.377.272.344.68.144.763-.444.257-.624.48-.742.755-6.748.34-13.496.679-20.699.87z"/><path fill="#E7D0DD" d="M398.089 296.924c3.049-1.88 4.836-.848 4.932 2.125.043 1.327-1.211 2.843-2.215 3.973-.341.385-2.45-.009-2.503-.286-.344-1.798-.344-3.661-.214-5.812z"/><path fill="#9183A1" d="M79.201 385.31c.237-.623.502-.876.926-1.357 2.487 6.237 4.816 12.702 7.145 19.167l-1.494.566c-2.182-6.002-4.365-12.004-6.577-18.376z"/><path fill="#D6B3C5" d="M405.74 514.418c-.298-1.991-.614-3.803-.183-5.414.138-.513 2.79-1.085 3.358-.58.883.784 1.703 2.992 1.23 3.656-.872 1.225-2.702 1.768-4.405 2.338z"/><path fill="#C9A6BE" d="M139.996 199.346c1.563-.778 3.176-1.695 4.453-1.355.732.195 1.558 2.678 1.173 3.683-.382.997-2.23 1.433-3.434 2.116-.76-1.352-1.521-2.705-2.192-4.444z"/><path fill="#D0ABC2" d="M222.606 516.42c-.142-1.907.011-3.622.164-5.336 1.168.208 2.779.036 3.376.733.586.685.587 2.57.031 3.345-.6.837-2.144.995-3.571 1.258z"/><path fill="#DFC0D1" d="M271.74 475.518c-1.446-.976-2.742-1.994-3.512-3.318-.17-.29 1.446-2.246 2.395-2.386.963-.143 3.01 1.014 3.009 1.597-.003 1.32-.976 2.637-1.893 4.107z"/><path fill="#C9A6BE" d="M462.605 153.68c2.234-.248 4.217-.248 6.2-.248l.165 2.176-6.775 1.247c.054-.976.107-1.952.41-3.176z"/><path fill="#D0ABC2" d="M518.501 412.698c-1.114 1.585-2.488 2.906-3.863 4.228l-1.251-3.863c1.618-.21 3.235-.42 5.114-.365z"/><path fill="#C1A2BB" d="M438.587 532.7c1.373.05 2.447.33 3.52.609-.501 1.468-.819 3.05-1.607 4.344-.268.441-1.719.163-2.63.214.14-1.646.278-3.293.717-5.167z"/><path fill="#D0ABC2" d="M389.34 547.66c-2.326-2.227-1.546-3.936.72-4.667 1.026-.33 2.502.737 3.773 1.17-1.387 1.225-2.774 2.45-4.492 3.497z"/><path fill="#C1A2BB" d="M564.443 314.508c-1.804 3.88-4.215 1.705-6.442.562-.264-.135-.154-1.685.25-2.241.382-.527 1.531-1.012 2.073-.805 1.37.52 2.587 1.44 4.119 2.484z"/><path fill="#DABECD" d="M390.145 517.72c-.5-.011-.77-.27-1.185-.77 1.53-2.814 3.208-5.388 4.886-7.961l1.542.985c-1.67 2.5-3.341 4.999-5.243 7.746zM183.996 469.996s.033-.407.045-.612c2.019-.45 4.026-.697 6.032-.944l.27 1.34c-1.83.363-3.66.726-5.902.849-.412-.24-.445-.633-.445-.633z"/><path fill="#DBB7CA" d="M577.805 371.85c-.036.767-.24 1.3-.67 2.016-1.026-.317-1.826-.817-2.756-1.565.102-.537.336-.826.949-1.522 1.022.007 1.665.422 2.477 1.071z"/><path fill="#E1C5D4" d="M188.707 227.59c.346-.483.828-.52 1.672-.57.112.911-.137 1.84-.386 2.767-.384-.584-.767-1.168-1.286-2.198z"/><path fill="#E7CDDB" d="M193.608 361.17c.726.538 1.09 1.291 1.414 2.41-.618-.487-1.197-1.34-1.414-2.41z"/><path fill="#DABECD" d="M273.062 435.024c-.5.395-1.002.79-1.811 1.068-.18-.662-.052-1.207.571-1.68.722.282.97.461 1.24.612zM219.198 462.454c-.644.552-1.538.73-2.433.907.258-.596.516-1.192 1.204-1.895.613.133.795.373 1.229.988z"/><path fill="#EAD6E1" d="M196.106 366.329c.517-.24 1.16-.099 1.883.37-.532.223-1.144.118-1.883-.37z"/><path fill="#ECD9E4" d="M273.411 434.605c-.619.268-.867.089-1.236-.302-.006-.331.13-.481.541-.76.532.128.788.386.695 1.062z"/><path fill="#C9A6BE" d="M183.796 470.08c.2-.084.233.309.232.506-.161.246-.32.296-.727.298-.13-.323.05-.547.495-.804z"/><path fill="#302F2F" d="M334.904 474.164c-1.845-1.003-3.696-1.403-5.116-2.409-1.201-.85-2.127-2.31-2.72-3.693-.237-.556.81-2.372 1.153-2.34 1.347.126 2.973.41 3.898 1.274 2.32 2.169 4.316 4.685 7.414 8.15-2.603-.376-3.525-.509-4.63-.982zM348.932 473.077c1.07.8 1.785 1.429 2.5 2.058-.03.55-.058 1.101-.087 1.652-2.378 0-4.783.187-7.11-.155-.475-.07-.656-2.13-.973-3.271 1.772-.152 3.544-.304 5.67-.284z"/><path fill="#302F34" d="M407.76 475.872c.275 2.212.165 4.34-.006 7.665-3.461-4.014-6.674-7.702-12.365-5.491 1.662-2.524 3.926-3.31 7.124-1.895 1.31.58 3.223-.202 5.247-.28z"/><path fill="#302F2F" d="M286.27 303.134c4.847 5.985 3.435 11.339-3.307 12.565-1.27-2.36-2.372-4.62-3.06-6.998-.475-1.639-.376-3.443-.534-5.173 2.182-.141 4.363-.282 6.9-.394zM292.109 277.567c-.142-1.848-.226-3.314-.38-5.963l7.658 1.73-4.92 10.222c-1.213-2.955-1.757-4.281-2.358-5.99zM208.176 177.287c-.298-2.143-.298-4.009-.298-6.757 1.762 1.028 2.643 1.543 3.812 2.267.186 2.549 2.341 6.622-3.514 4.49z"/><path fill="#302F34" d="M152.728 277.783c-.91.609-2.591 1.047-2.603 1.004-1.426-4.952-2.727-9.94-4.035-14.925l2.443-.686c1.4 4.737 2.802 9.475 4.195 14.607z"/><path fill="#EAD6E1" d="M208.959 365.49c-.657.21-1.054.095-1.45-.02.104-.213.227-.618.31-.61.472.048.934.193 1.14.63z"/></svg>